<?xml version="1.0" encoding="UTF-8"?>
<svg id="Layer_1" xmlns="http://www.w3.org/2000/svg" viewBox="0 0 1171.52 1171.9">
  <defs>
    <style>
      .cls-1 {
        fill: #fff;
      }
    </style>
  </defs>
  <path class="cls-1" d="M.07,585.92C-4.87,278.81,245.64,3.12,579.29.03c319.58-2.96,586.15,252.17,592.12,575.25,6.08,328.33-257.79,596.74-585.13,596.62C248.4,1171.78-4.79,891.31.07,585.92ZM1152.86,584.99c-.21-308.11-246.46-566.01-564.58-568.51C273.59,14.01,15.76,265.97,15.52,585.52c-.23,314.02,253.97,568.01,568.32,568.17,314.49.16,569.09-254.3,569.02-568.7Z"/>
  <path d="M1152.86,584.99c.07,314.4-254.53,568.85-569.02,568.7-314.35-.16-568.55-254.14-568.32-568.17C15.76,265.97,273.59,14.01,588.28,16.48c318.12,2.5,564.37,260.4,564.58,568.51ZM585.05,1000.55c232.57-.83,417.65-190.93,414.5-421.32-3.06-223.75-184.82-409.66-415.62-409.56-233.64.1-418.24,191.36-415.18,420.92,3.01,225.96,186.81,410.03,416.3,409.96ZM179.81,320.08l-.58.91c-1.69-.61-3.4-1.16-5.06-1.84-13.86-5.67-27.71-11.37-41.56-17.06-1.97-.81-3.89-2.16-5.5.73-2.72,4.9-5.63,9.71-8.6,14.79,14.39,11.67,28.45,23.08,42.51,34.48-1.93.34-3.3-.14-4.64-.7-14.3-5.92-28.58-11.9-42.91-17.73-1.3-.53-3.87-.79-4.29-.14-3.8,5.75-7.24,11.72-10.62,17.34.86.92,1.04,1.28,1.32,1.39,28.68,10.71,57.35,21.43,86.09,31.96,1.06.39,3.42-.74,4.17-1.85,3.08-4.54,5.63-9.43,8.66-14.01,1.81-2.73,1.23-4.31-1.23-6.18-4.77-3.62-9.32-7.52-13.96-11.33-7.51-6.16-15.01-12.33-22.51-18.5,1.52-.4,2.58-.07,3.6.35,13.39,5.51,26.81,10.94,40.12,16.63,3.3,1.41,5.03.93,6.66-2.3,2.09-4.15,4.49-8.18,7.15-12,2.25-3.24,1.85-5.26-1.17-7.85-15.41-13.23-30.62-26.68-45.91-40.05-7.48-6.55-14.98-13.08-23-20.09-4.01,6.71-7.69,12.88-11.44,19.16,14.59,11.58,28.64,22.73,42.7,33.89ZM160.5,713.77c-1.31-5.99-2.67-11.29-3.58-16.67-.69-4.07-2.76-5.02-6.61-4.61-10.26,1.1-20.56,1.9-30.84,2.79-5.98.52-11.97.97-17.96,1.46,1.26-1.7,2.68-2.45,4.18-3.03,10.71-4.13,21.42-8.27,32.16-12.32,14.62-5.51,14.56-5.46,11.04-20.58-.73-3.15-1.97-4.5-5.41-4.12-6.78.75-13.6,1.11-20.41,1.63-10.13.77-20.25,1.53-30.38,2.3.87-1.32,1.87-1.81,2.91-2.2,14.63-5.53,29.29-10.99,43.86-16.67,1.67-.65,4.2-2.8,4.03-3.89-1.07-6.66-2.8-13.22-4.38-20.13-28.94,12.25-57.3,24.21-85.57,36.37-1.22.52-2.49,3.04-2.28,4.41.86,5.58,2.36,11.06,3.46,16.61.54,2.72,1.98,3.46,4.59,3.15,4.13-.48,8.29-.73,12.45-1.01,11.65-.8,23.3-1.57,34.95-2.35-1.11,1.51-2.4,2.11-3.72,2.62-13.37,5.1-26.72,10.26-40.13,15.23-2.89,1.07-3.87,2.42-3.02,5.54,1.36,4.97,2.39,10.04,3.33,15.11.57,3.06,2.07,4,5.16,3.88,26.95-1.03,53.9-1.91,80.86-2.86,3.6-.13,7.19-.41,11.31-.65ZM829.21,216.98c9.37-12.89,18.38-25.29,27.39-37.7-1.58,15.6-4.18,30.67-6.51,45.78-.37,2.4-.49,6.08.91,7.3,5.05,4.44,10.8,8.09,16.67,12.31,18.61-25.83,36.85-51.14,55.47-76.98-6.21-4.47-12.06-8.68-18.27-13.15-9.4,12.95-18.48,25.45-27.55,37.95-.67-1.95-.57-3.43-.34-4.89,2.35-14.62,4.79-29.22,6.99-43.86.25-1.65-.28-4.21-1.43-5.13-5.02-4.03-10.4-7.61-16.07-11.65-18.54,25.74-36.86,51.16-55.41,76.92,6.26,4.51,12.03,8.67,18.17,13.1ZM104.8,499.49c-.01-.41-.02-.82-.03-1.23,12.46-3.4,24.78-7.58,37.44-9.96,9.87-1.85,15.13-6.13,15.09-16.34,0-1.63.42-3.33.99-4.87,1.56-4.22-.42-5.38-4.27-6.11-20.09-3.84-40.13-7.92-60.19-11.89-9.08-1.8-18.17-3.52-27.7-5.37-1.49,7.69-2.86,14.77-4.27,22.06,15.76,3.15,30.79,6.16,45.83,9.17-1.04,1.26-2.07,1.69-3.13,1.99-10.25,2.84-20.36,6.71-30.81,8.22-13.41,1.94-20.18,8.26-20.41,21.94-.06,3.5-.3,5.28,3.95,6.01,13.44,2.32,26.78,5.19,40.16,7.85,14.19,2.82,28.4,5.54,42.55,8.53,4.09.87,6.22.05,6.84-4.39.75-5.39,1.99-10.71,3.12-16.54-15.31-3.07-30.24-6.07-45.16-9.07ZM745.89,1110.87c1.26-3,2.21-5.28,3.17-7.56,3.74-8.92,3.82-9.02-3.92-14.9-2.88-2.19-3.49-4.26-2.86-7.97,3.23-19.08-.74-36.98-11.88-52.63-8.9-12.5-21.52-18.91-37.33-15.57-14.59,3.09-24.34,14.29-26.72,30.64-2.79,19.12,1.66,36.68,12.81,52.49,9.33,13.22,33.93,22.13,50.83,7.45,2.24-1.95,3.87-1.76,6,.14,2.95,2.64,6.19,4.97,9.91,7.91ZM1030.22,386.43c-1.46,2.02-2.04,2.97-2.77,3.8-8.14,9.23-15.81,18.96-24.61,27.5-6.63,6.43-8.5,12.39-3.37,20.25.98,1.5,1.48,3.35,1.99,5.1,1.18,4.04,3.01,4.91,7.25,3.15,24.88-10.32,49.9-20.3,74.87-30.41,2.56-1.04,5.06-2.21,7.94-3.47-2.89-7.04-5.58-13.59-8.45-20.6-14.87,5.97-29.2,11.72-43.52,17.47,9.21-12.06,18.77-23.34,28.85-34.13,4.17-4.46,5.93-8.38,2.41-13.92-1.49-2.35-2.49-5.13-3.14-7.85-1.19-4.99-3.61-5.04-7.87-3.27-20.88,8.66-41.89,17.02-62.84,25.51-6.4,2.59-12.76,5.28-19.4,8.03,1.82,4.58,3.31,8.44,4.87,12.26,4.13,10.09,2.64,8.72,11.62,5.16,1.7-.67,3.39-1.36,5.09-2.05,9.95-4.01,19.9-8.02,31.08-12.52ZM393.79,1089.88c13.22-29.06,26.13-57.44,39.29-86.36-7.4-3.37-14.28-6.49-21.57-9.81-4.63,9.87-9.02,19.23-13.52,28.82-6.94-3.19-13.06-6-19.5-8.96,4.48-9.92,8.63-19.11,13.06-28.93-7.41-3.38-14.42-6.58-21.96-10.02-13.2,29-26.15,57.48-39.28,86.33,7.63,3.46,14.52,6.6,21.97,9.98,5.14-11.22,10.09-21.99,15.18-33.1,5.56,2.53,10.45,4.99,15.54,6.98,3.61,1.41,3.8,3.18,2.23,6.42-3.99,8.22-7.63,16.61-11.45,24.92-.97,2.11-1.74,3.95,1.25,5.25,6.09,2.63,12.09,5.45,18.75,8.47ZM180.91,869.22c1.18,0,1.68-.08,2.14.01,14.14,2.95,28.56-3.24,35.82-15.56,3.71-6.3,4.52-12.6.23-19.23-7.68-11.87-15.14-23.89-22.48-35.97-1.92-3.17-3.51-2.99-6.32-1.2-19.24,12.23-38.58,24.29-57.87,36.44-6.14,3.87-12.24,7.81-18.61,11.89,4.26,6.75,8.2,13,12.07,19.12.99-.4,1.33-.48,1.6-.65,5.65-3.52,11.29-7.05,16.93-10.59q9.26-5.82,15.05,3.56c3.13,5.07,2.91,7.92-1.71,11.68-3.47,2.82-7.35,5.15-11.14,7.57-9.49,6.06-9.54,6.04-3.63,15.59,2.46,3.98,5.05,7.87,7.15,11.13,3.78-3.07,6.68-5.61,9.77-7.89,3.08-2.27,6.33-4.31,9.53-6.4,6.9-4.51,11.88-10.2,11.47-19.5ZM1056.2,716.2c-4.85-12.03-14.29-16.99-25.59-19.03-12.9-2.34-22.22,2.39-25.48,12.67-4.12,13-7.89,26.12-12.24,39.04-1.48,4.39-.21,5.72,3.81,6.95,27.03,8.29,54,16.8,80.99,25.22,1.35.42,2.78.58,4.43.91,2.3-7.37,4.46-14.27,6.73-21.52-5.7-1.82-10.75-3.41-15.8-5.04-4.98-1.61-9.94-3.25-15.03-4.92.99-3.27,1.76-5.81,2.54-8.35,2.6-8.47,5.29-9.88,13.96-7.46,5.61,1.56,11.2,3.19,16.87,4.48,1.31.3,3.94-.25,4.21-1.03,2.49-7.06,4.6-14.25,6.72-21.1-3.98-.47-7.02-.62-9.96-1.22-3.25-.66-6.43-1.67-9.61-2.65-9.14-2.8-18.19-4.88-26.56,3.05ZM951.81,975.2c-4.83-4.85-9.5-9.57-14.21-14.27-8.31-8.29-8.23-8.19-.22-16.51,3.24-3.37,6.52-3.7,10.2-1.25,1.78,1.19,3.38,2.68,4.96,4.14,4.72,4.35,9.39,8.76,13.78,12.86,6.17-6.24,11.7-11.83,16.62-16.8-3.08-2.5-6.39-5.03-9.51-7.78-3.62-3.18-6.96-6.69-10.63-9.81-4.76-4.05-10.15-6.3-16.6-4.86-.71.16-1.52-.16-2.22-.25-1.33-15.82-7.05-24.94-19.5-31.33-9.22-4.73-16.72-3.63-24.05,3.65-9.32,9.26-18.47,18.69-27.96,27.78-3.13,2.99-3.31,4.74-.11,7.88,16.95,16.67,33.69,33.56,50.45,50.43,4.19,4.22,8.18,8.63,12.1,12.79,6.04-5.96,11.31-11.17,16.9-16.69ZM214.8,976.91c10.12,8.41,19.94,16.11,29.23,24.42,7.94,7.11,16.73,8.11,25.98,4.4,24.86-9.99,40.42-27.93,44.92-54.72,1.41-8.41-1.49-15.35-8.17-20.74-5.82-4.71-11.54-9.54-17.29-14.34-4.44-3.71-8.84-7.45-13.71-11.56-20.44,24.32-40.51,48.21-60.96,72.54ZM590.66,1124.3c2.36,0,4.16.11,5.95-.02,10.62-.79,21.22-1.84,31.84-2.4,10.66-.56,18.05-5.88,22.05-15.32,10.01-23.62,9.05-46.71-5.04-68.59-4.45-6.91-10.7-11.39-19.53-10.75-12.61.92-25.21,1.96-37.82,2.7-3.77.22-4.63,1.64-4.33,5.26,1.99,24.37,3.78,48.75,5.63,73.13.4,5.26.82,10.51,1.25,15.99ZM121.08,812c2.32-.17,4.67-.17,6.96-.55,19.1-3.17,36.44-9.64,47.66-26.73,13.14-20.01,3.94-44.84-18.93-51.61-20.87-6.17-52.48,5.1-65.48,22.59-13.22,17.79-9.31,50.64,21.34,55.49,2.79.44,5.63.55,8.45.81ZM753.29,154.2c.07,15.46,6.72,26.75,19.61,34.08,12.3,6.99,24.39,4.65,35.14-3.31,17.43-12.9,27.11-30.72,28.15-52.28.72-15.13-5.37-27.93-19.89-34.63-14.43-6.67-27.83-3.27-39.26,7.06-14.57,13.18-22.63,29.77-23.76,49.08ZM799.51,973.4c-6.12,2.82-11.48,5.5-17.01,7.76-3.63,1.48-4.19,3.06-2.42,6.71,7.9,16.33,15.56,32.78,23.11,49.28,3.37,7.36,1.37,14.97-4.14,17.61-5.85,2.81-11.76-.26-15.59-8.34-7.76-16.4-15.52-32.79-23.03-49.3-1.67-3.67-3.42-4.24-6.83-2.44-4.26,2.25-8.65,4.3-13.12,6.12-3.25,1.32-3.75,2.95-2.25,6.09,8.32,17.42,15.98,35.17,24.82,52.32,8.55,16.59,24.9,27.73,46.61,16.56,1.04-.53,2.08-1.05,3.11-1.6,15.81-8.46,21.58-24.61,14.51-41.1-3.02-7.03-6.34-13.94-9.58-20.88-5.98-12.79-12-25.56-18.21-38.77ZM647.22,148.89c15.38.22,28.58-10.39,31.04-25.44,3.43-21.01,5.77-42.19,8.65-63.28.38-2.79-.58-3.95-3.36-4.19-3.81-.33-7.6-.93-11.39-1.44-8.44-1.13-8.31-1.12-9.34,7.11-2.05,16.34-4.1,32.68-6.52,48.97-.51,3.46-2.09,7.01-4.05,9.94-2.18,3.28-5.67,5.3-9.95,4.04-4.58-1.35-7.25-4.6-7.97-9.29-.25-1.61-.08-3.32.13-4.95,2.34-18.15,4.76-36.29,7.05-54.44.26-2.04,1.79-5.09-1.87-5.67-6.24-.98-12.53-1.68-18.83-2.18-.87-.07-2.6,1.55-2.73,2.55-2.75,21.11-6.74,42.2-7.53,63.4-.69,18.67,8.45,30.55,26.62,33.66,3.77.64,7.59.93,10.04,1.22ZM92.65,367.87c-6.94,18.66-13.63,36.68-20.4,54.89,1.33.72,2.27,1.39,3.31,1.78,27.26,10.18,54.54,20.28,81.76,30.54,3.39,1.28,4.34-.18,5.34-2.92,5.88-16.08,11.89-32.12,17.83-48.17.5-1.34.82-2.75,1.32-4.43-7.15-2.64-13.92-5.15-21-7.77-.89,2.23-1.59,3.89-2.23,5.58-3.2,8.57-6.29,17.18-9.68,25.67-.47,1.18-2.67,2.72-3.65,2.47-3.62-.93-7.07-2.54-10.89-4.01,3.15-8.49,5.98-16.47,9.1-24.34,1.21-3.05.59-4.62-2.52-5.6-3.33-1.05-6.57-2.35-9.83-3.6q-6.94-2.66-9.64,4.39c-.24.62-.43,1.26-.67,1.88-2.42,6.47-4.85,12.94-7.37,19.65-4.22-1.62-7.74-2.96-11.75-4.5,4.15-11.33,8.16-22.31,12.27-33.55-7.25-2.71-13.91-5.2-21.31-7.97ZM500.09,1022.23c-1.99-.69-3.36-1.26-4.78-1.63-15.92-4.18-31.89-8.19-47.75-12.58-3.85-1.07-5,.17-5.81,3.57-1.77,7.44-3.81,14.82-5.74,22.22-5.22,19.95-10.46,39.89-15.64,59.85-.6,2.3-1.92,4.87,2.02,5.89,17.39,4.5,34.73,9.15,52.13,13.6,1.03.26,3.27-.59,3.49-1.36,1.93-6.46,3.51-13.02,5.25-19.74-2.24-.68-3.79-1.22-5.37-1.64-8.84-2.35-17.72-4.58-26.51-7.1-1.35-.39-3.43-2.26-3.29-3.14.62-3.83,1.93-7.54,3.03-11.44,10.09,2.55,19.52,4.94,29.27,7.4,1.93-7.34,3.68-14.02,5.57-21.22-10.05-2.71-19.57-5.27-29.38-7.91,1.22-4.32,2.23-7.92,3.37-11.95,11.65,2.99,22.84,5.87,34.46,8.85,1.97-7.52,3.8-14.5,5.69-21.69ZM504.89,147.65c1.25.21,1.75.4,2.22.35,18.2-1.98,36.39-4.01,54.59-5.97,2.6-.28,3.37-1.52,3.03-4-.67-4.94-1.43-9.9-1.68-14.87-.19-3.73-1.82-4.35-5.11-3.9-7.41,1.03-14.86,1.82-22.31,2.63-10.35,1.11-10.25,1.07-11.39-9.05-.34-3.01.47-4.24,3.5-4.52,7.29-.66,14.55-1.68,21.84-2.27,3.46-.28,4.7-1.59,4.12-5.05-.61-3.6-.84-7.27-1.24-10.91-.73-6.58-.74-6.6-7.17-5.93-7.74.8-15.48,1.64-23.68,2.51-.34-2.56-.37-4.73-.95-6.74-1.41-4.97.85-6.33,5.42-6.66,8.46-.6,16.88-1.74,25.33-2.51,3.14-.28,4.37-1.38,3.79-4.76-.76-4.42-1.25-8.93-1.32-13.4-.06-4.12-1.83-5.01-5.58-4.58-16.03,1.87-32.07,3.69-48.13,5.22-4.51.43-5.85,1.92-5.26,6.52,1.96,15.35,3.48,30.75,5.21,46.12,1.56,13.86,3.16,27.72,4.77,41.77ZM992.47,804.26c.82-1.81,1.45-3.31,2.19-4.76,3.9-7.72,7.82-15.43,11.75-23.13,1-1.97,2.32-3.99-.6-5.46-5.77-2.9-11.56-5.74-17.9-8.87-8.91,17.62-17.64,34.89-26.45,52.33.76.56,1.11.92,1.54,1.14,26.55,13.45,53.12,26.85,79.63,40.38,3.04,1.55,4.14.13,5.31-2.23,4.45-8.93,8.98-17.82,13.47-26.73,3.86-7.68,7.69-15.36,11.76-23.48-7.09-3.57-13.65-6.87-20.45-10.29-5.1,10.15-9.85,19.67-14.66,29.15-.93,1.83-1.56,4.46-4.63,2.86-3.33-1.74-6.62-3.55-10.09-5.42,4.59-9.19,8.93-17.91,13.43-26.93-5.12-2.59-10.02-4.7-14.51-7.46-4.05-2.49-6.03-1.53-7.92,2.57-3.41,7.34-7.26,14.48-11.03,21.92-3.86-1.99-7.22-3.72-10.83-5.58ZM1032.69,471.93c3.88-.94,6.99-1.48,9.95-2.48,3.01-1.01,4.23-.02,4.86,2.91,1.56,7.33,3.42,14.59,4.93,21.92.6,2.91,1.75,4,4.77,3.18,4.49-1.22,9.02-2.34,13.6-3.2,3.13-.59,4.2-1.82,3.3-5.07-1.37-4.97-2.35-10.04-3.49-15.07q-2.45-10.81,8.57-12.85c.28-.05.61.17,1.36.39,2.63,11.18,5.32,22.58,8.05,34.18,7.73-1.8,14.78-3.45,22.19-5.17-4.47-19.51-8.75-38.23-13.16-57.51-10.12,2.3-19.5,4.42-28.87,6.55-19.8,4.5-39.59,9.03-59.39,13.5-2.53.57-4.27,1.21-3.48,4.58,4.06,17.34,7.85,34.74,12,52.05.27,1.14,2.84,2.65,4.12,2.47,4.76-.69,9.38-2.3,14.13-3.03,4.05-.62,4.72-2.27,3.75-6.08-2.57-10.13-4.72-20.38-7.2-31.27ZM350.23,130.3c-7.03-13.26-23.48-18.44-37.41-12.23-15.99,7.12-22.96,20.94-18.34,36.34,5.11,17.02,17.06,24.39,35.09,21.59,5.59-.87,11.13-2.27,16.74-2.59,2.29-.13,5.84,1.41,6.74,3.22.94,1.9.18,5.62-1.24,7.51-3.42,4.57-8.79,4.99-13.8,2.03-1.1-.65-2.76-1.8-3.45-1.42-6.26,3.43-12.36,7.15-18.57,10.82,4.31,6.49,9.6,10.07,15.78,12.48,14.08,5.5,29.14,1.72,38.91-9.79,7.53-8.87,8.21-25.28,1.51-36.24-7.12-11.64-16.94-16.27-30.3-14.19-6.25.97-12.49,1.95-18.7,3.15-4.58.88-6.87-1.13-7.96-5.32-1.16-4.44,1.69-6.53,5.04-7.08,3.04-.5,6.34.55,9.52.91,1.47.17,3.28.95,4.34.38,5.39-2.93,10.58-6.22,16.12-9.55ZM1080.06,693.64c1.66.15,2.62.33,3.58.3,16.8-.49,29.31-12.36,32.17-28.82,2.08-11.97-1.02-21.23-10.23-28.81-14.43-11.86-39.84-10.6-48.03,9.65-2.16,5.35-5.7,10.14-8.49,15.24-1.78,3.26-4.24,3.79-7.55,2.55-3.33-1.25-5.35-3.76-3.89-6.87,1.5-3.19,4.35-5.77,6.73-8.52,1-1.15,3.1-1.9,3.33-3.09,1.16-6.17,1.88-12.43,2.77-18.83-1.41-.27-2.36-.57-3.31-.62-15-.81-27.83,10-30.2,25.41-2.58,16.81,4.14,29.03,18.86,34.23,16.12,5.7,28.66.87,37.39-14.43,2.88-5.05,5.49-10.3,8.76-15.09,1.15-1.69,4.23-3.53,5.85-3.1,2.27.6,4.94,2.9,5.75,5.1,1.87,5.05-1.52,10.38-6.83,12.8-1.56.71-3.63,2.15-3.9,3.56-1.2,6.18-1.83,12.47-2.75,19.32ZM707.06,60.75c-.63.86-.91,1.1-1,1.4-8.66,28.63-17.3,57.27-25.98,85.89-.85,2.79.31,3.93,2.86,4.6,3.86,1.01,7.65,2.25,11.48,3.37q6.85,1.99,8.89-4.77c2.04-6.76,4.08-13.52,6.03-20,6.7,1.62,12.58,3.38,18.58,4.41,9.84,1.68,17.95-1.45,24.1-9.56,7.26-9.56,10.8-20.27,9.59-32.19-.92-9-4.28-17.29-13.51-20.52-13.46-4.7-27.25-8.44-41.05-12.63ZM249.94,240.57c-3.17,3.49-6.19,7.23-9.65,10.51-3.9,3.69-4.97,6.94-1.68,11.96,2.7,4.11,3.02,9.35-.6,13.55-3.57,4.15-8.2,3.64-12.89,2.04-10.29-3.52-18.41-9.88-24.55-18.78-4.51-6.54-5.12-13.63-1.71-17.63,3.82-4.49,8.07-4.69,16.92-1.18,1.18.47,3.42.29,4.18-.51,4.45-4.67,8.6-9.62,13-14.65-6.83-6.56-14.86-8.91-23.6-10.32-23.56-3.8-38.82,19.21-36.65,36.82,3.21,26.11,34.3,52.19,60.7,50.36,14.62-1.01,25.88-9.85,29.76-23.38,3.77-13.14-2.13-30.87-13.23-38.78ZM920.15,1005.39c-.54-.71-.77-1.16-1.13-1.46-23.99-19.79-47.96-39.6-72.07-59.24-1.04-.85-3.74-.84-4.97-.09-4.53,2.76-8.64,6.22-13.17,9-3.1,1.9-3.26,3.88-2.08,7.02,5.59,14.94,10.96,29.96,16.42,44.95,5.18,14.19,10.38,28.38,15.74,43.03,4.19-2.92,7.99-5.56,11.78-8.22,6.93-4.85,7-4.88,3.8-12.72-.93-2.29-1.13-3.9,1.27-5.48,4.73-3.1,9.17-6.64,13.96-9.63,1.1-.69,3.39-.41,4.65.29,1.83,1.02,3.09,3.05,4.88,4.21.99.64,2.96.95,3.81.39,5.78-3.85,11.39-7.97,17.11-12.05ZM332.4,218.85c-.65-.74-.92-1.19-1.31-1.46-25.25-17.91-50.48-35.85-75.86-53.59-1.23-.86-4.2-.55-5.58.38-3.98,2.69-7.4,6.23-11.36,8.96-3.68,2.53-3.66,5.11-1.96,8.86,12,26.35,23.83,52.77,35.73,79.17.71,1.58,1.56,3.11,2.55,5.06,4.38-3.54,8.26-6.65,12.1-9.8,6.59-5.42,5.93-3.52,2.38-11.14-.76-1.62-1.24-4.71-.37-5.52,5.08-4.71,10.6-8.95,16.18-13.51,2.52,1.98,4.6,3.93,6.99,5.36,1.14.68,3.39,1.08,4.24.43,5.54-4.2,10.83-8.73,16.25-13.19ZM570.37,1124.31c-.6-3.76-1.03-6.69-1.54-9.61-4.87-27.52-9.8-55.03-14.56-82.57-.58-3.33-1.74-4.97-5.35-5.04-4.48-.09-8.99-.48-13.41-1.23-4.17-.71-6.2.52-7.71,4.65-9.19,25.15-18.68,50.19-28.06,75.28-1.37,3.65-2.66,7.33-4.21,11.64,7.3.69,13.72,1.48,20.16,1.77,1.21.05,3.11-1.6,3.67-2.91,3.64-8.38,3.54-8.41,12.71-7.35,1.82.21,3.65.28,5.47.46,7.48.76,7.81-1,8.74,8,.19,1.8,1.97,4.68,3.37,4.9,6.52,1.05,13.15,1.35,20.72,2ZM1018.09,268.7c-1.45,1.89-2.49,3.14-3.42,4.48-9.86,14.2-19.52,28.54-29.68,42.53-2.94,4.04-6.98,7.51-11.1,10.42-6.36,4.5-13.29,8.2-19.81,12.5-1.05.69-2.09,3.24-1.62,4.09,3.35,6.06,7.1,11.89,10.98,18.21,8.5-5.25,16.46-10.33,24.59-15.11,2.81-1.65,5.96-3.16,9.12-3.66,10.67-1.68,21.41-2.85,32.12-4.28,9.33-1.24,18.66-2.55,28.84-3.95-2.96-4.9-5.41-9-7.89-13.07-5.94-9.71-5.94-9.67-17-7.41-6.75,1.38-13.52,2.61-21.77,4.19,1.97-2.72,2.97-4.17,4.05-5.57,4.56-5.93,9.31-11.73,13.6-17.84,1.06-1.51,1.6-4.54.8-6.02-3.46-6.41-7.49-12.51-11.82-19.52ZM919.22,874.09c6.93,4.98,13.36,9.6,20.02,14.38,4.27-5.76,8.3-11.2,12.55-16.92,19.05,13.69,37.75,27.13,56.82,40.84,4.74-6.59,9.16-12.73,13.84-19.24-19.07-13.78-37.75-27.27-56.7-40.97,4.07-5.82,7.93-11.35,12.02-17.19-6.75-4.84-13.16-9.45-20-14.36-12.96,17.98-25.57,35.46-38.55,53.46ZM1011.37,259.96c-13.81-16.28-27.31-32.24-40.95-48.09-.6-.7-2.94-.92-3.66-.34-5.65,4.53-11.11,9.31-16.86,14.22,4.72,5.6,9.05,10.74,13.57,16.1-18.05,15.36-35.61,30.31-53.37,45.43,5.24,6.16,10.15,11.94,15.37,18.07,17.94-15.21,35.51-30.1,53.43-45.29,3.92,4.6,7.33,8.89,11.11,12.82.98,1.02,3.86,1.78,4.69,1.14,5.61-4.35,10.9-9.1,16.67-14.04ZM419.67,97.84c-2.79-6.87-5.18-13.26-8.05-19.43-.52-1.12-3.33-2.29-4.46-1.84-18.39,7.3-36.7,14.83-54.96,22.45-.94.39-2.13,2.44-1.84,3.2,2.61,6.92,5.53,13.73,8.4,20.67,6.85-2.72,12.98-5.16,19.46-7.73.91,2.04,1.68,3.66,2.36,5.31,7.51,18.31,15.1,36.59,22.44,54.97,1.37,3.42,2.77,4.34,6.2,2.68,4.49-2.16,9.15-4,13.84-5.69,3.16-1.14,3.53-2.72,2.26-5.66-3.44-7.94-6.62-15.98-9.89-23.98-4.95-12.11-9.9-24.22-15.01-36.71,6.59-2.82,12.65-5.42,19.25-8.25ZM163.53,920.26c12.62,14.49,24.71,28.38,37.09,42.61,6.46-5.64,12.54-10.94,18.82-16.43-7.17-8.29-14-16.17-21.15-24.43,17.74-15.49,35.06-30.62,52.59-45.93-5.51-6.33-10.5-12.05-15.81-18.15-23.96,20.88-47.5,41.39-71.54,62.33ZM465.97,132.28c-.8-2.8-1.49-5.01-2.06-7.24-4.73-18.53-9.51-37.06-14.11-55.62-.86-3.48-2.27-4.76-5.93-3.62-4.92,1.52-9.95,2.71-14.98,3.85-2.76.62-3.43,1.93-2.74,4.63,7.25,28.19,14.47,56.39,21.55,84.62.81,3.22,2.34,3.4,5.03,2.7,15.46-3.99,30.94-7.95,46.44-11.78,3.39-.84,4.19-2.38,3.14-5.71-1.5-4.75-2.71-9.62-3.65-14.51-.77-4-2.33-5.16-6.49-3.94-8.44,2.47-17.04,4.36-26.19,6.63ZM69.82,583.77c.04,8.92,6.89,15.79,15.76,15.82,8.62.03,15.64-7.19,15.61-16.05-.03-8.45-7.04-15.44-15.6-15.55-8.81-.11-15.82,6.89-15.78,15.78ZM1075.95,581.6c8.83,0,15.94-7.05,15.85-15.71-.08-8.68-6.83-15.67-15.3-15.84-8.88-.18-15.97,6.69-16.01,15.53-.04,9.1,6.65,16.03,15.45,16.02Z"/>
  <path class="cls-1" d="M585.05,1000.55c-229.49.06-413.29-184-416.3-409.96-3.06-229.56,181.54-420.82,415.18-420.92,230.8-.1,412.56,185.81,415.62,409.56,3.15,230.39-181.94,420.49-414.5,421.32ZM982.54,586.42c-.38-220.33-177.68-397.61-397.45-397.39-218.82.22-397.01,179.28-396.53,396.95.5,221.64,182.4,400.4,403.6,396.89,213.46-3.38,390.22-177.84,390.37-396.45Z"/>
  <path class="cls-1" d="M179.81,320.08c-14.05-11.15-28.11-22.31-42.7-33.89,3.75-6.28,7.43-12.45,11.44-19.16,8.02,7.01,15.52,13.54,23,20.09,15.29,13.37,30.5,26.83,45.91,40.05,3.02,2.59,3.42,4.61,1.17,7.85-2.65,3.82-5.06,7.85-7.15,12-1.63,3.24-3.36,3.71-6.66,2.3-13.31-5.69-26.74-11.12-40.12-16.63-1.02-.42-2.08-.74-3.6-.35,7.5,6.17,15.01,12.34,22.51,18.5,4.63,3.8,9.19,7.71,13.96,11.33,2.46,1.87,3.04,3.46,1.23,6.18-3.03,4.57-5.58,9.47-8.66,14.01-.75,1.1-3.1,2.24-4.17,1.85-28.74-10.53-57.42-21.25-86.09-31.96-.28-.1-.46-.46-1.32-1.39,3.38-5.62,6.82-11.6,10.62-17.34.42-.64,3-.38,4.29.14,14.33,5.83,28.61,11.81,42.91,17.73,1.34.56,2.71,1.04,4.64.7-14.06-11.4-28.12-22.81-42.51-34.48,2.97-5.09,5.88-9.89,8.6-14.79,1.61-2.9,3.52-1.55,5.5-.73,13.85,5.69,27.7,11.39,41.56,17.06,1.66.68,3.37,1.23,5.06,1.84l.58-.91Z"/>
  <path class="cls-1" d="M160.5,713.77c-4.12.24-7.71.52-11.31.65-26.95.95-53.91,1.83-80.86,2.86-3.08.12-4.59-.82-5.16-3.88-.94-5.07-1.97-10.14-3.33-15.11-.86-3.13.12-4.47,3.02-5.54,13.42-4.98,26.76-10.13,40.13-15.23,1.32-.51,2.61-1.1,3.72-2.62-11.65.78-23.3,1.55-34.95,2.35-4.15.29-8.31.53-12.45,1.01-2.62.31-4.05-.43-4.59-3.15-1.1-5.55-2.61-11.03-3.46-16.61-.21-1.37,1.06-3.89,2.28-4.41,28.27-12.16,56.63-24.12,85.57-36.37,1.58,6.92,3.31,13.47,4.38,20.13.17,1.09-2.36,3.24-4.03,3.89-14.57,5.68-29.23,11.14-43.86,16.67-1.04.39-2.04.89-2.91,2.2,10.13-.76,20.25-1.53,30.38-2.3,6.81-.52,13.63-.88,20.41-1.63,3.44-.38,4.67.97,5.41,4.12,3.53,15.12,3.58,15.07-11.04,20.58-10.74,4.05-21.45,8.19-32.16,12.32-1.49.58-2.92,1.33-4.18,3.03,5.99-.48,11.98-.94,17.96-1.46,10.28-.89,20.58-1.69,30.84-2.79,3.85-.41,5.92.54,6.61,4.61.91,5.38,2.27,10.68,3.58,16.67Z"/>
  <path class="cls-1" d="M829.21,216.98c-6.14-4.43-11.91-8.59-18.17-13.1,18.56-25.76,36.87-51.18,55.41-76.92,5.67,4.04,11.05,7.62,16.07,11.65,1.15.92,1.68,3.49,1.43,5.13-2.2,14.64-4.64,29.24-6.99,43.86-.23,1.46-.33,2.93.34,4.89,9.07-12.5,18.15-25,27.55-37.95,6.21,4.47,12.06,8.68,18.27,13.15-18.62,25.84-36.85,51.15-55.47,76.98-5.86-4.22-11.61-7.87-16.67-12.31-1.4-1.23-1.28-4.9-.91-7.3,2.33-15.11,4.93-30.17,6.51-45.78-9.01,12.4-18.02,24.81-27.39,37.7Z"/>
  <path class="cls-1" d="M104.8,499.49c14.92,3,29.84,5.99,45.16,9.07-1.12,5.84-2.36,11.16-3.12,16.54-.62,4.45-2.74,5.26-6.84,4.39-14.15-2.99-28.36-5.71-42.55-8.53-13.38-2.66-26.72-5.53-40.16-7.85-4.25-.73-4.01-2.52-3.95-6.01.23-13.68,7-20,20.41-21.94,10.45-1.51,20.55-5.38,30.81-8.22,1.06-.29,2.09-.73,3.13-1.99-15.03-3.01-30.07-6.02-45.83-9.17,1.41-7.29,2.78-14.37,4.27-22.06,9.53,1.84,18.62,3.57,27.7,5.37,20.06,3.97,40.1,8.06,60.19,11.89,3.84.73,5.83,1.89,4.27,6.11-.57,1.54-1,3.24-.99,4.87.04,10.21-5.22,14.49-15.09,16.34-12.66,2.38-24.98,6.56-37.44,9.96.01.41.02.82.03,1.23Z"/>
  <path class="cls-1" d="M745.89,1110.87c-3.72-2.94-6.96-5.27-9.91-7.91-2.13-1.91-3.76-2.09-6-.14-16.9,14.68-41.5,5.77-50.83-7.45-11.15-15.81-15.6-33.37-12.81-52.49,2.38-16.34,12.14-27.55,26.72-30.64,15.81-3.35,28.43,3.07,37.33,15.57,11.14,15.64,15.12,33.55,11.88,52.63-.63,3.72-.02,5.79,2.86,7.97,7.74,5.88,7.66,5.98,3.92,14.9-.95,2.28-1.91,4.56-3.17,7.56ZM713.4,1085.32c-2.93-2.44-5.51-4.25-7.61-6.49-1-1.07-1.91-3.28-1.47-4.45,1.62-4.29,3.82-8.37,5.95-12.83,3.15,2.16,5.94,4.06,9.05,6.19.2-9.96-4.36-21.94-10.38-28.05-6.52-6.61-15.28-5-18.38,3.38-4.22,11.41.82,31.7,9.9,39.81,3.41,3.05,7.19,4.68,12.95,2.44Z"/>
  <path class="cls-1" d="M1030.22,386.43c-11.17,4.5-21.13,8.51-31.08,12.52-1.7.68-3.39,1.37-5.09,2.05-8.98,3.56-7.5,4.93-11.62-5.16-1.57-3.83-3.06-7.68-4.87-12.26,6.65-2.75,13.01-5.44,19.4-8.03,20.95-8.49,41.96-16.85,62.84-25.51,4.26-1.77,6.68-1.71,7.87,3.27.65,2.72,1.65,5.5,3.14,7.85,3.51,5.55,1.76,9.46-2.41,13.92-10.08,10.79-19.64,22.07-28.85,34.13,14.33-5.75,28.66-11.5,43.52-17.47,2.87,7.01,5.56,13.55,8.45,20.6-2.88,1.26-5.39,2.43-7.94,3.47-24.97,10.11-49.99,20.09-74.87,30.41-4.24,1.76-6.07.88-7.25-3.15-.51-1.75-1.02-3.6-1.99-5.1-5.13-7.86-3.25-13.82,3.37-20.25,8.81-8.55,16.48-18.27,24.61-27.5.73-.82,1.3-1.78,2.77-3.8Z"/>
  <path class="cls-1" d="M393.79,1089.88c-6.65-3.02-12.66-5.85-18.75-8.47-2.99-1.29-2.22-3.13-1.25-5.25,3.81-8.31,7.46-16.7,11.45-24.92,1.57-3.23,1.37-5-2.23-6.42-5.08-1.99-9.98-4.46-15.54-6.98-5.1,11.12-10.04,21.89-15.18,33.1-7.45-3.38-14.35-6.52-21.97-9.98,13.13-28.85,26.08-57.33,39.28-86.33,7.54,3.44,14.55,6.64,21.96,10.02-4.43,9.82-8.58,19-13.06,28.93,6.43,2.96,12.56,5.77,19.5,8.96,4.5-9.59,8.89-18.94,13.52-28.82,7.28,3.31,14.17,6.44,21.57,9.81-13.15,28.92-26.06,57.29-39.29,86.36Z"/>
  <path class="cls-1" d="M180.91,869.22c.41,9.3-4.57,14.98-11.47,19.5-3.2,2.09-6.45,4.13-9.53,6.4-3.09,2.28-5.99,4.81-9.77,7.89-2.1-3.26-4.69-7.16-7.15-11.13-5.9-9.54-5.86-9.53,3.63-15.59,3.78-2.41,7.67-4.74,11.14-7.57,4.62-3.76,4.84-6.61,1.71-11.68q-5.8-9.38-15.05-3.56c-5.63,3.54-11.28,7.06-16.93,10.59-.27.17-.61.25-1.6.65-3.87-6.13-7.81-12.37-12.07-19.12,6.38-4.08,12.47-8.02,18.61-11.89,19.29-12.14,38.63-24.21,57.87-36.44,2.81-1.78,4.39-1.97,6.32,1.2,7.34,12.09,14.8,24.1,22.48,35.97,4.29,6.63,3.48,12.93-.23,19.23-7.26,12.32-21.68,18.52-35.82,15.56-.46-.1-.96-.01-2.14-.01ZM171.96,836.22c2.54,4.1,4.46,7.82,7.03,11.03,1.1,1.37,3.94,2.72,5.31,2.22,3.3-1.2,6.38-3.28,9.16-5.49.88-.7,1.21-3.31.61-4.41-2.24-4.17-4.97-8.09-7.71-12.43-4.98,3.15-9.44,5.96-14.39,9.08Z"/>
  <path class="cls-1" d="M1056.2,716.2c8.37-7.94,17.42-5.86,26.56-3.05,3.18.98,6.36,1.98,9.61,2.65,2.94.6,5.98.76,9.96,1.22-2.12,6.84-4.23,14.04-6.72,21.1-.27.78-2.9,1.33-4.21,1.03-5.67-1.3-11.27-2.92-16.87-4.48-8.67-2.42-11.36-1-13.96,7.46-.78,2.54-1.54,5.08-2.54,8.35,5.09,1.67,10.05,3.31,15.03,4.92,5.04,1.63,10.1,3.22,15.8,5.04-2.27,7.24-4.43,14.15-6.73,21.52-1.64-.33-3.08-.49-4.43-.91-26.99-8.41-53.96-16.93-80.99-25.22-4.02-1.23-5.28-2.57-3.81-6.95,4.35-12.92,8.12-26.04,12.24-39.04,3.26-10.28,12.58-15,25.48-12.67,11.29,2.05,20.74,7,25.59,19.03ZM1037.35,744.15c1.21-3.83,2.19-6.97,3.19-10.11,1.91-5.98.27-8.75-6.37-10.81-6.11-1.89-8.09-.79-10.11,5.62-.75,2.37-1.82,4.7-2.17,7.13-.17,1.18.69,3.34,1.62,3.7,4.29,1.68,8.77,2.89,13.84,4.47Z"/>
  <path class="cls-1" d="M951.81,975.2c-5.59,5.52-10.86,10.72-16.9,16.69-3.92-4.15-7.91-8.57-12.1-12.79-16.76-16.87-33.5-33.76-50.45-50.43-3.2-3.15-3.02-4.89.11-7.88,9.49-9.08,18.64-18.52,27.96-27.78,7.33-7.28,14.84-8.39,24.05-3.65,12.45,6.39,18.17,15.51,19.5,31.33.7.09,1.52.41,2.22.25,6.44-1.44,11.84.81,16.6,4.86,3.67,3.12,7.01,6.63,10.63,9.81,3.12,2.75,6.44,5.28,9.51,7.78-4.92,4.97-10.45,10.56-16.62,16.8-4.39-4.11-9.06-8.51-13.78-12.86-1.58-1.46-3.18-2.95-4.96-4.14-3.68-2.46-6.96-2.12-10.2,1.25-8,8.31-8.08,8.22.22,16.51,4.7,4.69,9.38,9.42,14.21,14.27ZM914.39,937.96c3.41-3.76,6.53-6.78,9.08-10.22.97-1.31,1.54-4.13.79-5.27-1.95-2.94-4.57-5.54-7.31-7.81-.87-.72-3.47-.58-4.41.21-3.74,3.14-7.14,6.7-10.52,9.95,4.11,4.37,7.72,8.21,12.36,13.14Z"/>
  <path class="cls-1" d="M214.8,976.91c20.44-24.33,40.52-48.22,60.96-72.54,4.87,4.11,9.28,7.85,13.71,11.56,5.75,4.8,11.47,9.63,17.29,14.34,6.67,5.4,9.58,12.33,8.17,20.74-4.5,26.78-20.06,44.73-44.92,54.72-9.25,3.72-18.04,2.71-25.98-4.4-9.28-8.31-19.11-16.01-29.23-24.42ZM247.92,973.5c2.99,2.51,5.13,5.12,7.88,6.39,2.76,1.28,6.66,2.53,9.15,1.52,12.37-5.01,20.63-14.32,24.32-27.14.72-2.51-.47-6.35-2.13-8.58-2.28-3.07-5.84-5.19-9.17-7.98-10.16,12.09-19.94,23.73-30.06,35.78Z"/>
  <path class="cls-1" d="M590.66,1124.3c-.43-5.48-.85-10.74-1.25-15.99-1.86-24.38-3.64-48.77-5.63-73.13-.3-3.62.56-5.04,4.33-5.26,12.62-.74,25.22-1.79,37.82-2.7,8.83-.64,15.08,3.84,19.53,10.75,14.09,21.88,15.05,44.97,5.04,68.59-4,9.44-11.4,14.76-22.05,15.32-10.63.56-21.23,1.61-31.84,2.4-1.79.13-3.59.02-5.95.02ZM608.28,1052.57c1.25,15.94,2.45,31.1,3.67,46.64,3.48-.26,6.42-.58,9.36-.67,4.33-.12,7.32-2.22,8.8-6.14,4.52-11.93,4.05-23.74-1.47-35.25-1.7-3.54-4.7-5.67-8.76-5.56-3.61.1-7.21.59-11.61.98Z"/>
  <path class="cls-1" d="M121.08,812c-2.82-.26-5.66-.37-8.45-.81-30.65-4.85-34.56-37.7-21.34-55.49,13-17.49,44.61-28.76,65.48-22.59,22.87,6.77,32.07,31.6,18.93,51.61-11.22,17.08-28.56,23.56-47.66,26.73-2.29.38-4.64.38-6.97.55ZM144.29,754.48c-7.72.37-16.36,2.35-23.02,6.91-4.18,2.86-8.52,6.14-11.34,10.22-5.44,7.88-1.12,15.95,8.43,16.6,3.28.22,6.69-.05,9.92-.7,9.99-2.01,19.11-5.93,25.82-13.98,4.59-5.51,4.6-12.19-.25-15.46-2.74-1.85-6.34-2.43-9.56-3.58Z"/>
  <path class="cls-1" d="M753.29,154.2c1.13-19.32,9.19-35.9,23.76-49.08,11.42-10.33,24.82-13.73,39.26-7.06,14.51,6.7,20.61,19.5,19.89,34.63-1.03,21.56-10.71,39.38-28.15,52.28-10.75,7.95-22.84,10.3-35.14,3.31-12.9-7.33-19.55-18.62-19.61-34.08ZM812.35,130.93c-.43-4.39-1.61-8.67-6.22-10.91-4.41-2.14-8.49-.96-12.08,1.92-9.09,7.3-14.4,16.93-16.18,28.32-.54,3.48-.16,7.4.91,10.77,2.31,7.24,9.56,9.44,15.58,4.89,11.48-8.67,16.81-20.66,17.99-34.99Z"/>
  <path class="cls-1" d="M799.51,973.4c6.21,13.21,12.23,25.98,18.21,38.77,3.24,6.94,6.56,13.84,9.58,20.88,7.07,16.49,1.3,32.65-14.51,41.1-1.03.55-2.07,1.07-3.11,1.6-21.71,11.18-38.06.04-46.61-16.56-8.84-17.15-16.5-34.9-24.82-52.32-1.5-3.14-1-4.77,2.25-6.09,4.47-1.82,8.86-3.87,13.12-6.12,3.41-1.8,5.16-1.22,6.83,2.44,7.51,16.51,15.27,32.91,23.03,49.3,3.83,8.09,9.74,11.15,15.59,8.34,5.5-2.64,7.5-10.25,4.14-17.61-7.55-16.5-15.21-32.95-23.11-49.28-1.77-3.65-1.21-5.23,2.42-6.71,5.54-2.25,10.9-4.94,17.01-7.76Z"/>
  <path class="cls-1" d="M647.22,148.89c-2.45-.29-6.28-.57-10.04-1.22-18.17-3.11-27.31-14.98-26.62-33.66.79-21.2,4.77-42.28,7.53-63.4.13-.99,1.86-2.61,2.73-2.55,6.3.5,12.59,1.2,18.83,2.18,3.66.58,2.13,3.62,1.87,5.67-2.29,18.16-4.71,36.29-7.05,54.44-.21,1.63-.38,3.34-.13,4.95.72,4.69,3.39,7.94,7.97,9.29,4.28,1.26,7.77-.76,9.95-4.04,1.95-2.93,3.53-6.48,4.05-9.94,2.41-16.29,4.47-32.63,6.52-48.97,1.03-8.24.91-8.25,9.34-7.11,3.79.51,7.58,1.11,11.39,1.44,2.78.24,3.74,1.4,3.36,4.19-2.88,21.1-5.22,42.28-8.65,63.28-2.46,15.05-15.66,25.66-31.04,25.44Z"/>
  <path class="cls-1" d="M92.65,367.87c7.39,2.76,14.05,5.25,21.31,7.97-4.11,11.24-8.12,22.21-12.27,33.55,4.01,1.53,7.53,2.88,11.75,4.5,2.52-6.72,4.95-13.18,7.37-19.65.23-.62.43-1.26.67-1.88q2.71-7.07,9.64-4.39c3.26,1.25,6.5,2.56,9.83,3.6,3.11.98,3.72,2.56,2.52,5.6-3.11,7.87-5.95,15.85-9.1,24.34,3.82,1.47,7.27,3.08,10.89,4.01.98.25,3.17-1.29,3.65-2.47,3.39-8.49,6.48-17.1,9.68-25.67.63-1.69,1.33-3.35,2.23-5.58,7.08,2.62,13.85,5.12,21,7.77-.5,1.69-.83,3.09-1.32,4.43-5.94,16.06-11.95,32.09-17.83,48.17-1,2.74-1.95,4.2-5.34,2.92-27.22-10.26-54.51-20.36-81.76-30.54-1.04-.39-1.98-1.06-3.31-1.78,6.77-18.22,13.47-36.23,20.4-54.89Z"/>
  <path class="cls-1" d="M500.09,1022.23c-1.89,7.19-3.72,14.17-5.69,21.69-11.62-2.99-22.81-5.86-34.46-8.85-1.14,4.03-2.15,7.63-3.37,11.95,9.81,2.64,19.33,5.2,29.38,7.91-1.89,7.2-3.65,13.88-5.57,21.22-9.75-2.47-19.17-4.85-29.27-7.4-1.1,3.9-2.41,7.61-3.03,11.44-.14.88,1.94,2.75,3.29,3.14,8.79,2.52,17.67,4.75,26.51,7.1,1.58.42,3.14.95,5.37,1.64-1.74,6.72-3.33,13.28-5.25,19.74-.23.77-2.46,1.62-3.49,1.36-17.4-4.44-34.75-9.1-52.13-13.6-3.94-1.02-2.62-3.59-2.02-5.89,5.18-19.96,10.42-39.9,15.64-59.85,1.94-7.4,3.98-14.78,5.74-22.22.81-3.4,1.96-4.64,5.81-3.57,15.86,4.39,31.83,8.4,47.75,12.58,1.42.37,2.79.94,4.78,1.63Z"/>
  <path class="cls-1" d="M504.89,147.65c-1.6-14.05-3.21-27.91-4.77-41.77-1.73-15.38-3.25-30.78-5.21-46.12-.59-4.6.76-6.09,5.26-6.52,16.06-1.53,32.1-3.35,48.13-5.22,3.75-.44,5.51.45,5.58,4.58.07,4.48.57,8.99,1.32,13.4.58,3.38-.66,4.48-3.79,4.76-8.45.76-16.87,1.9-25.33,2.51-4.57.33-6.83,1.68-5.42,6.66.57,2.01.61,4.18.95,6.74,8.2-.87,15.94-1.71,23.68-2.51,6.44-.66,6.44-.64,7.17,5.93.4,3.64.63,7.31,1.24,10.91.58,3.46-.66,4.77-4.12,5.05-7.29.59-14.55,1.61-21.84,2.27-3.03.28-3.84,1.51-3.5,4.52,1.15,10.12,1.04,10.17,11.39,9.05,7.44-.8,14.89-1.6,22.31-2.63,3.29-.46,4.92.16,5.11,3.9.25,4.97,1.01,9.93,1.68,14.87.34,2.48-.43,3.72-3.03,4-18.2,1.96-36.39,3.99-54.59,5.97-.47.05-.96-.14-2.22-.35Z"/>
  <path class="cls-1" d="M992.47,804.26c3.61,1.86,6.98,3.59,10.83,5.58,3.78-7.44,7.63-14.57,11.03-21.92,1.9-4.09,3.88-5.05,7.92-2.57,4.5,2.76,9.39,4.87,14.51,7.46-4.5,9.02-8.85,17.74-13.43,26.93,3.47,1.87,6.76,3.68,10.09,5.42,3.07,1.61,3.7-1.03,4.63-2.86,4.81-9.48,9.56-19,14.66-29.15,6.79,3.42,13.35,6.72,20.45,10.29-4.06,8.12-7.9,15.81-11.76,23.48-4.48,8.91-9.02,17.8-13.47,26.73-1.17,2.35-2.27,3.78-5.31,2.23-26.51-13.52-53.08-26.93-79.63-40.38-.43-.22-.79-.58-1.54-1.14,8.81-17.44,17.54-34.71,26.45-52.33,6.33,3.13,12.13,5.97,17.9,8.87,2.92,1.47,1.61,3.49.6,5.46-3.93,7.71-7.85,15.41-11.75,23.13-.73,1.45-1.36,2.96-2.19,4.76Z"/>
  <path class="cls-1" d="M1032.69,471.93c2.48,10.9,4.63,21.14,7.2,31.27.97,3.81.3,5.46-3.75,6.08-4.75.73-9.38,2.34-14.13,3.03-1.28.19-3.85-1.33-4.12-2.47-4.15-17.31-7.94-34.71-12-52.05-.79-3.38.94-4.01,3.48-4.58,19.8-4.48,39.59-9,59.39-13.5,9.37-2.13,18.75-4.26,28.87-6.55,4.41,19.28,8.69,38,13.16,57.51-7.4,1.73-14.45,3.37-22.19,5.17-2.73-11.6-5.42-23-8.05-34.18-.75-.22-1.08-.44-1.36-.39q-11.02,2.04-8.57,12.85c1.14,5.03,2.12,10.11,3.49,15.07.9,3.25-.17,4.48-3.3,5.07-4.57.86-9.11,1.97-13.6,3.2-3.02.82-4.17-.27-4.77-3.18-1.52-7.33-3.38-14.6-4.93-21.92-.62-2.93-1.85-3.93-4.86-2.91-2.96,1-6.08,1.54-9.95,2.48Z"/>
  <path class="cls-1" d="M350.23,130.3c-5.54,3.33-10.73,6.62-16.12,9.55-1.06.58-2.87-.21-4.34-.38-3.18-.36-6.48-1.41-9.52-.91-3.35.55-6.2,2.64-5.04,7.08,1.1,4.19,3.38,6.21,7.96,5.32,6.2-1.2,12.45-2.18,18.7-3.15,13.36-2.08,23.18,2.55,30.3,14.19,6.7,10.96,6.02,27.37-1.51,36.24-9.76,11.5-24.82,15.29-38.91,9.79-6.18-2.42-11.47-5.99-15.78-12.48,6.21-3.67,12.31-7.39,18.57-10.82.69-.38,2.36.78,3.45,1.42,5.01,2.96,10.38,2.54,13.8-2.03,1.41-1.89,2.18-5.61,1.24-7.51-.9-1.81-4.45-3.34-6.74-3.22-5.61.32-11.16,1.72-16.74,2.59-18.03,2.8-29.98-4.58-35.09-21.59-4.62-15.4,2.35-29.22,18.34-36.34,13.93-6.21,30.38-1.03,37.41,12.23Z"/>
  <path class="cls-1" d="M1080.06,693.64c.92-6.85,1.55-13.14,2.75-19.32.27-1.41,2.34-2.85,3.9-3.56,5.31-2.42,8.7-7.75,6.83-12.8-.81-2.2-3.49-4.5-5.75-5.1-1.62-.43-4.69,1.41-5.85,3.1-3.27,4.79-5.88,10.03-8.76,15.09-8.73,15.3-21.27,20.13-37.39,14.43-14.71-5.21-21.44-17.42-18.86-34.23,2.37-15.41,15.2-26.22,30.2-25.41.96.05,1.9.35,3.31.62-.9,6.41-1.61,12.66-2.77,18.83-.22,1.19-2.33,1.93-3.33,3.09-2.38,2.75-5.23,5.32-6.73,8.52-1.46,3.11.57,5.61,3.89,6.87,3.31,1.24,5.77.71,7.55-2.55,2.8-5.11,6.33-9.89,8.49-15.24,8.19-20.24,33.6-21.51,48.03-9.65,9.21,7.57,12.31,16.83,10.23,28.81-2.86,16.46-15.37,28.33-32.17,28.82-.96.03-1.92-.15-3.58-.3Z"/>
  <path class="cls-1" d="M707.06,60.75c13.8,4.19,27.59,7.93,41.05,12.63,9.22,3.22,12.59,11.52,13.51,20.52,1.22,11.93-2.33,22.63-9.59,32.19-6.15,8.1-14.27,11.24-24.1,9.56-6.01-1.03-11.89-2.79-18.58-4.41-1.95,6.48-3.99,13.24-6.03,20q-2.04,6.75-8.89,4.77c-3.83-1.12-7.63-2.36-11.48-3.37-2.55-.67-3.7-1.81-2.86-4.6,8.69-28.62,17.32-57.26,25.98-85.89.09-.3.37-.54,1-1.4ZM716.27,108.22c4.49,1.39,8.23,2.73,12.08,3.7,3.73.94,7.63-1.92,9.3-6.47,1.85-5.02.96-9.37-2.69-10.91-3.5-1.48-7.21-2.53-10.92-3.36-.92-.21-2.87.92-3.19,1.84-1.68,4.82-2.99,9.76-4.58,15.2Z"/>
  <path class="cls-1" d="M249.94,240.57c11.1,7.91,17,25.64,13.23,38.78-3.88,13.52-15.13,22.37-29.76,23.38-26.4,1.83-57.49-24.25-60.7-50.36-2.16-17.6,13.09-40.61,36.65-36.82,8.74,1.41,16.78,3.76,23.6,10.32-4.4,5.03-8.56,9.98-13,14.65-.77.81-3,.98-4.18.51-8.85-3.51-13.1-3.31-16.92,1.18-3.41,4-2.8,11.09,1.71,17.63,6.14,8.9,14.26,15.26,24.55,18.78,4.69,1.6,9.32,2.11,12.89-2.04,3.62-4.2,3.29-9.44.6-13.55-3.29-5.01-2.22-8.26,1.68-11.96,3.46-3.28,6.48-7.02,9.65-10.51Z"/>
  <path class="cls-1" d="M920.15,1005.39c-5.72,4.08-11.33,8.2-17.11,12.05-.85.56-2.82.25-3.81-.39-1.79-1.15-3.04-3.18-4.88-4.21-1.26-.7-3.54-.98-4.65-.29-4.79,2.99-9.23,6.53-13.96,9.63-2.4,1.58-2.2,3.19-1.27,5.48,3.19,7.84,3.13,7.87-3.8,12.72-3.8,2.65-7.6,5.3-11.78,8.22-5.36-14.65-10.56-28.84-15.74-43.03-5.47-14.99-10.84-30.01-16.42-44.95-1.17-3.14-1.01-5.11,2.08-7.02,4.53-2.78,8.63-6.23,13.17-9,1.23-.75,3.92-.76,4.97.09,24.11,19.64,48.08,39.45,72.07,59.24.36.3.59.75,1.13,1.46ZM877.13,996.89c-8.05-7.42-15.52-14.31-23-21.21-.31.23-.63.46-.94.68,3.88,9.44,7.77,18.88,11.91,28.94,4.13-2.89,7.76-5.43,12.03-8.41Z"/>
  <path class="cls-1" d="M332.4,218.85c-5.42,4.46-10.71,8.99-16.25,13.19-.86.65-3.1.26-4.24-.43-2.39-1.43-4.47-3.38-6.99-5.36-5.58,4.56-11.1,8.8-16.18,13.51-.88.81-.39,3.9.37,5.52,3.55,7.62,4.2,5.72-2.38,11.14-3.84,3.16-7.73,6.26-12.1,9.8-.99-1.95-1.83-3.48-2.55-5.06-11.9-26.39-23.73-52.82-35.73-79.17-1.71-3.75-1.72-6.32,1.96-8.86,3.96-2.73,7.37-6.26,11.36-8.96,1.38-.93,4.35-1.24,5.58-.38,25.38,17.73,50.61,35.67,75.86,53.59.39.28.66.73,1.31,1.46ZM288.87,213.37c-8.24-6.43-16.02-12.5-23.79-18.56-.37.37-.75.74-1.12,1.11,4.43,8.77,8.86,17.54,13.6,26.92,3.89-3.26,7.27-6.09,11.31-9.47Z"/>
  <path class="cls-1" d="M570.37,1124.31c-7.56-.65-14.2-.95-20.72-2-1.4-.23-3.18-3.1-3.37-4.9-.94-9.01-1.26-7.24-8.74-8-1.82-.18-3.65-.25-5.47-.46-9.17-1.06-9.08-1.03-12.71,7.35-.57,1.31-2.46,2.96-3.67,2.91-6.44-.29-12.86-1.07-20.16-1.77,1.56-4.3,2.85-7.98,4.21-11.64,9.38-25.08,18.87-50.12,28.06-75.28,1.51-4.13,3.54-5.36,7.71-4.65,4.42.75,8.93,1.14,13.41,1.23,3.61.07,4.77,1.71,5.35,5.04,4.76,27.54,9.7,55.05,14.56,82.57.52,2.92.94,5.85,1.54,9.61ZM542.9,1089.77c-1.31-10.78-2.53-20.75-3.74-30.73-.43,0-.85,0-1.28,0-3.13,9.64-6.25,19.28-9.58,29.53,5.29.43,9.66.79,14.6,1.2Z"/>
  <path class="cls-1" d="M1018.09,268.7c4.32,7.01,8.36,13.11,11.82,19.52.8,1.48.26,4.51-.8,6.02-4.29,6.12-9.04,11.91-13.6,17.84-1.07,1.4-2.07,2.85-4.05,5.57,8.25-1.58,15.03-2.81,21.77-4.19,11.05-2.25,11.05-2.3,17,7.41,2.49,4.07,4.94,8.17,7.89,13.07-10.18,1.4-19.5,2.71-28.84,3.95-10.71,1.42-21.46,2.59-32.12,4.28-3.16.5-6.32,2.01-9.12,3.66-8.14,4.78-16.09,9.86-24.59,15.11-3.88-6.32-7.63-12.16-10.98-18.21-.47-.85.57-3.4,1.62-4.09,6.52-4.3,13.45-8,19.81-12.5,4.11-2.91,8.16-6.37,11.1-10.42,10.16-13.98,19.81-28.33,29.68-42.53.93-1.34,1.98-2.6,3.42-4.48Z"/>
  <path class="cls-1" d="M919.22,874.09c12.98-18,25.59-35.48,38.55-53.46,6.84,4.91,13.25,9.52,20,14.36-4.08,5.84-7.95,11.37-12.02,17.19,18.96,13.7,37.64,27.2,56.7,40.97-4.68,6.51-9.1,12.66-13.84,19.24-19.07-13.71-37.77-27.15-56.82-40.84-4.24,5.72-8.27,11.16-12.55,16.92-6.66-4.79-13.09-9.4-20.02-14.38Z"/>
  <path class="cls-1" d="M1011.37,259.96c-5.76,4.93-11.05,9.69-16.67,14.04-.83.64-3.7-.12-4.69-1.14-3.79-3.92-7.19-8.22-11.11-12.82-17.92,15.19-35.49,30.08-53.43,45.29-5.21-6.13-10.13-11.91-15.37-18.07,17.75-15.11,35.32-30.06,53.37-45.43-4.52-5.36-8.85-10.5-13.57-16.1,5.75-4.91,11.21-9.69,16.86-14.22.72-.57,3.06-.36,3.66.34,13.64,15.85,27.14,31.82,40.95,48.09Z"/>
  <path class="cls-1" d="M419.67,97.84c-6.6,2.83-12.67,5.43-19.25,8.25,5.1,12.48,10.05,24.6,15.01,36.71,3.27,8,6.46,16.05,9.89,23.98,1.27,2.93.9,4.52-2.26,5.66-4.69,1.69-9.35,3.53-13.84,5.69-3.43,1.65-4.84.74-6.2-2.68-7.34-18.38-14.93-36.66-22.44-54.97-.68-1.66-1.45-3.28-2.36-5.31-6.48,2.58-12.61,5.01-19.46,7.73-2.87-6.94-5.79-13.75-8.4-20.67-.29-.76.9-2.81,1.84-3.2,18.26-7.62,36.57-15.15,54.96-22.45,1.12-.45,3.94.72,4.46,1.84,2.87,6.17,5.26,12.56,8.05,19.43Z"/>
  <path class="cls-1" d="M163.53,920.26c24.04-20.94,47.57-41.45,71.54-62.33,5.32,6.1,10.3,11.82,15.81,18.15-17.52,15.3-34.85,30.43-52.59,45.93,7.15,8.26,13.98,16.14,21.15,24.43-6.29,5.49-12.37,10.79-18.82,16.43-12.38-14.23-24.47-28.11-37.09-42.61Z"/>
  <path class="cls-1" d="M465.97,132.28c9.14-2.28,17.75-4.17,26.19-6.63,4.16-1.22,5.71-.06,6.49,3.94.95,4.89,2.16,9.76,3.65,14.51,1.05,3.33.25,4.87-3.14,5.71-15.5,3.84-30.98,7.79-46.44,11.78-2.69.69-4.22.52-5.03-2.7-7.08-28.23-14.3-56.43-21.55-84.62-.69-2.69-.02-4,2.74-4.63,5.03-1.13,10.06-2.32,14.98-3.85,3.66-1.13,5.07.14,5.93,3.62,4.61,18.56,9.38,37.09,14.11,55.62.57,2.23,1.26,4.44,2.06,7.24Z"/>
  <path class="cls-1" d="M69.82,583.77c-.04-8.88,6.96-15.89,15.78-15.78,8.55.11,15.56,7.1,15.6,15.55.03,8.86-6.99,16.08-15.61,16.05-8.88-.03-15.72-6.9-15.76-15.82Z"/>
  <path class="cls-1" d="M1075.95,581.6c-8.8,0-15.49-6.93-15.45-16.02.04-8.83,7.13-15.71,16.01-15.53,8.46.17,15.21,7.16,15.3,15.84.08,8.66-7.03,15.71-15.85,15.71Z"/>
  <path d="M982.54,586.42c-.15,218.61-176.91,393.07-390.37,396.45-221.2,3.51-403.1-175.25-403.6-396.89-.49-217.68,177.7-396.74,396.53-396.95,219.76-.22,397.06,177.06,397.45,397.39ZM748.38,829.65c1.93-1.62,3.59-2.99,5.22-4.39,14.52-12.46,29.55-24.37,43.4-37.52,14.84-14.08,28.61-29.28,42.73-44.1,2.77-2.9,5.73-4.57,9.75-5.26,27.72-4.72,55.39-9.75,83.12-14.47,4.9-.83,6.4-3.05,5.76-7.81-2.14-15.83-4.03-31.7-6.05-47.55-6.28-49.2-12.59-98.4-18.84-147.61-1.12-8.82-2.42-9.64-10.9-6.51-39.03,14.39-78.05,28.79-117.13,43.03-2.12.77-5.02.93-7.06.12-39.33-15.47-78.59-31.12-117.84-46.8-1.63-.65-3.18-1.79-4.43-3.04-13.39-13.45-26.81-26.88-40-40.53-3.2-3.31-5.95-3.71-10.08-1.78-15.98,7.46-32.13,14.57-48.2,21.84-62.3,28.2-124.59,56.45-186.95,84.52-2.31,1.04-5.52,1.22-8,.59-10.79-2.76-21.47-5.98-32.19-9.03-25.76-7.33-51.52-14.68-77.29-21.99-6.41-1.82-8.28-.39-8.24,6.23.03,5.33.26,10.65.38,15.98,1.48,62.75,3,125.49,4.37,188.24.1,4.71,1.66,6.97,6.44,7.55,16.52,2,33.01,4.33,49.53,6.34,3.6.44,5.91,1.84,7.88,4.99,14.27,22.75,30.31,44.2,48.35,64.11,28.45,31.38,60.71,57.84,99.24,76.03,20.75,9.8,42.35,16.81,65.38,18.87,4.36.39,7.42-.72,10.22-4.43,7.81-10.36,16.06-20.41,24.23-30.49,1.21-1.49,2.8-2.96,4.53-3.71,10.55-4.52,21.22-8.76,31.79-13.26,2.58-1.1,4.19-.65,6,1.44,4.57,5.29,9.5,10.27,14.02,15.6,3.22,3.81,6.07,4.21,10.13,1.04,11.14-8.72,22.52-17.13,33.82-25.65,4.33-3.27,8.69-6.49,12.7-9.49,4.62,4.44,8.97,8.32,12.95,12.54,3.17,3.36,5.9,3.88,9.91,1.1,16.42-11.37,33.04-22.44,49.58-33.64,5.74-3.89,5.92-4.94,1.76-11.12ZM466.71,369.49c.35.03.71.05,1.06.08,2.7,9.39,5.4,18.79,8.12,28.28h9.89c2.79-9.4,5.55-18.69,8.3-27.98.4.05.8.1,1.2.15v27.64h12.78v-42.48c-5.3,0-10.28.26-15.22-.09-3.64-.26-4.97,1.26-5.73,4.53-1.21,5.25-2.82,10.42-4.26,15.62-2.43-5.67-3.84-11.3-5.57-16.82-.4-1.27-1.87-3.08-2.93-3.13-5.91-.3-11.84-.15-17.95-.15v42.53h10.3v-28.18ZM551.58,369.45l1.39.09v28.26h12.43v-42.65c-5.05,0-9.73.35-14.33-.1-4.24-.41-5.89,1.25-6.71,5.18-1.05,5-2.66,9.89-4.03,14.83-.34-.07-.68-.14-1.03-.22-1.84-6.52-3.67-13.03-5.45-19.34h-19.89v42.3h10.04v-28.25c3.41,7.92,5.92,15.94,7.93,24.09.91,3.69,2.73,4.62,6.27,4.52,3.32-.09,5.43-.43,6.38-4.35,1.99-8.21,4.62-16.26,6.99-24.37ZM571.97,316.05c.45-.17.91-.34,1.36-.51,4.66,7.22,9.25,14.48,14.02,21.64.93,1.4,2.39,3.18,3.81,3.38,3.52.49,7.15.16,10.97.16v-42.49h-10.4v20.96c-5.05-5.89-9.05-12.12-13.22-18.23-.85-1.25-2.26-2.84-3.52-2.95-4.23-.37-8.52-.14-12.75-.14v42.62h9.75v-24.44ZM429.33,399.28c13.62.17,23.23-8.79,23.43-21.82.22-13.93-8.7-23.34-22.22-23.45-14.05-.12-23.45,8.69-23.61,22.11-.17,13.99,8.53,22.99,22.4,23.16ZM643.53,376.76c-.38.09-.76.18-1.13.27-4.09-6.24-8.13-12.52-12.32-18.68-.86-1.26-2.24-2.91-3.5-3.03-4.22-.38-8.49-.14-12.76-.14v42.56h10.02v-25.82c1.65,2.19,2.56,3.27,3.32,4.45,3.98,6.15,7.83,12.38,11.92,18.45.91,1.35,2.51,2.9,3.96,3.1,3.39.46,6.89.15,10.45.15v-42.48h-9.97v21.17ZM451.08,314.45c1.62,2.25,2.49,3.35,3.25,4.52,4.07,6.28,8.05,12.62,12.23,18.83.82,1.22,2.28,2.64,3.59,2.79,3.41.39,6.9.13,10.59.13v-42.58h-10.09v21.38c-5-5.96-9.02-12.2-13.19-18.34-.87-1.28-2.18-3.05-3.42-3.16-4.37-.39-8.8-.15-13-.15v42.48h10.06v-25.91ZM630.53,318.28v7.69c2.34.26,4.25.48,6.49.73-.47,4.31-3.3,5.53-6.52,5.86-3.78.38-7.06-1.02-8.58-4.69-2.26-5.45-2.29-11.14.14-16.52,2.65-5.86,9.99-6.17,13.7-.91.74,1.05,2.05,2.23,3.2,2.35,3.11.33,6.27.11,9.41.11-.02-8.66-6.01-14.9-14.98-16.03-18.2-2.29-29.7,10.3-26.08,28.55,2.23,11.25,9.67,17.49,20.23,16.29,3.44-.39,6.71-2.31,9.66-3.38,3.01,4.97,7.77,1.17,11.86,2.73v-22.78h-18.52ZM810.72,368.65c-2.64-4.26-4.06-8.08-6.72-10.55-6.43-5.98-20.36-5.47-26.9.38-7.61,6.8-5.99,17.5,3.42,21.42,3.51,1.46,7.45,1.89,10.93,3.39,1.92.83,3.3,2.9,4.93,4.41-2.26.98-4.45,2.44-6.79,2.75-1.52.21-4.21-.84-4.75-2.05-2.86-6.4-8.08-4.06-14.04-4.16,1.69,3.36,2.63,6.41,4.49,8.7,6.35,7.81,23.24,8.65,30.56,1.79,7-6.56,5.11-17.75-3.8-21.23-4-1.56-8.4-2.11-12.43-3.62-1.51-.57-2.49-2.54-3.72-3.87,1.65-1.1,3.18-2.88,4.96-3.17,4.33-.7,6.64,2.2,7.97,5.81h11.9ZM403.53,381.27c-8.29-1.33-8.77-1.16-13.19,4.73-3.53,4.71-12.01,4.08-13.37-1.54-1.19-4.92-1.14-10.59.06-15.52,1.31-5.43,10.24-6.78,12.84-1.91,3.54,6.64,8.51,4.14,13.41,4.41-.8-11.75-9.18-18.19-21.98-17.38-12.54.79-20.22,10.47-19.58,24.69.6,13.28,9.62,21.09,23.63,20.48,11.42-.5,18.54-7.53,18.17-17.95ZM598.51,355.37c-.1,1.96-.26,3.75-.27,5.53-.05,7.16.1,14.33-.11,21.48-.17,5.59-2.99,7.71-8.49,6.96-5.06-.69-5.77-4.41-5.8-8.46-.07-8.43-.02-16.86-.02-25.36h-13.29c0,8.5-.02,16.64,0,24.78.04,13.4,5.42,18.78,18.8,18.87,1.5,0,3,.02,4.49-.08,9.26-.65,14.67-6.16,14.87-15.48.18-8.49.08-16.99.04-25.48,0-.92-.4-1.84-.61-2.76h-9.61ZM768.48,355.41h-33.31v42.38h33.83v-9.19h-20.7v-7.92h11.81v-8.91c-4.24-.23-8.12-.45-12-.66v-6.7h20.37v-9ZM398.04,298.09c0,10.53-.34,20.81.13,31.05.27,5.81,4.02,10.25,9.73,11.3,5.43,1,11.21,1.08,16.71.44,6.02-.7,10.29-4.96,10.64-10.96.61-10.54.17-21.13.17-31.79h-9.97c0,8.92.16,17.54-.05,26.14-.15,6.2-2.69,8.3-8.4,7.68-5.03-.55-5.94-4.18-5.97-8.28-.07-8.44-.02-16.88-.02-25.58h-12.97ZM708.77,340.75c-3.96-11.6-7.66-22.42-11.35-33.25-3.32-9.74-3.32-9.57-13.49-9.78-3.64-.08-5.18,1.16-6.31,4.55-3.89,11.67-8.15,23.22-12.22,34.83-.36,1.02-.38,2.16-.56,3.26,9.44,1.1,9.33,1.06,12.62-6.63.54-1.26,2.37-2.45,3.8-2.74,2.24-.46,4.72-.49,6.94.01,1.56.35,3.93,1.77,4.07,2.93.79,6.44,4.67,7.55,10.11,6.86,1.79-.23,3.63-.04,6.4-.04ZM711.88,364.94v-9.41h-35.27v9.24h11.04v33.01h13.32v-32.85h10.91ZM514.71,340.44h13.4v-32.86c3.93-.19,7.35-.35,10.89-.52v-8.89h-35.18v8.85c3.75.21,7.16.41,10.89.62v32.79ZM724.51,331.51v-33.3h-12.74v42.34h29.67v-9.04h-16.92ZM746.08,298.03v42.56h29.37v-9.36h-16.74v-33.19h-12.63ZM672.7,397.83v-42.35h-12.53v42.35h12.53ZM499.84,340.48v-42.3h-12.48v42.3h12.48ZM544.18,298.05v42.29h12.55v-42.29h-12.55ZM716.99,355.42v42.34h12.49v-42.34h-12.49Z"/>
  <path d="M713.4,1085.32c-5.76,2.24-9.54.61-12.95-2.44-9.08-8.12-14.12-28.41-9.9-39.81,3.1-8.38,11.86-9.99,18.38-3.38,6.02,6.11,10.58,18.09,10.38,28.05-3.11-2.13-5.89-4.03-9.05-6.19-2.13,4.46-4.33,8.54-5.95,12.83-.44,1.17.47,3.38,1.47,4.45,2.11,2.25,4.69,4.05,7.61,6.49Z"/>
  <path d="M171.96,836.22c4.95-3.13,9.41-5.94,14.39-9.08,2.75,4.34,5.47,8.25,7.71,12.43.59,1.1.26,3.71-.61,4.41-2.78,2.21-5.86,4.29-9.16,5.49-1.37.5-4.21-.85-5.31-2.22-2.57-3.21-4.49-6.93-7.03-11.03Z"/>
  <path d="M1037.35,744.15c-5.07-1.58-9.55-2.79-13.84-4.47-.93-.36-1.79-2.52-1.62-3.7.34-2.43,1.42-4.75,2.17-7.13,2.03-6.41,4-7.52,10.11-5.62,6.65,2.06,8.28,4.83,6.37,10.81-1,3.14-1.98,6.29-3.19,10.11Z"/>
  <path d="M914.39,937.96c-4.64-4.93-8.25-8.77-12.36-13.14,3.37-3.25,6.77-6.81,10.52-9.95.94-.79,3.54-.93,4.41-.21,2.74,2.27,5.35,4.87,7.31,7.81.75,1.13.18,3.96-.79,5.27-2.56,3.43-5.67,6.46-9.08,10.22Z"/>
  <path d="M247.92,973.5c10.12-12.05,19.9-23.69,30.06-35.78,3.33,2.79,6.89,4.91,9.17,7.98,1.65,2.23,2.85,6.07,2.13,8.58-3.7,12.81-11.95,22.13-24.32,27.14-2.48,1.01-6.39-.25-9.15-1.52-2.75-1.27-4.89-3.88-7.88-6.39Z"/>
  <path d="M608.28,1052.57c4.4-.39,8-.88,11.61-.98,4.05-.11,7.06,2.02,8.76,5.56,5.53,11.51,6,23.32,1.47,35.25-1.49,3.93-4.47,6.02-8.8,6.14-2.95.08-5.89.41-9.36.67-1.22-15.54-2.42-30.7-3.67-46.64Z"/>
  <path d="M144.29,754.48c3.21,1.15,6.82,1.73,9.56,3.58,4.85,3.28,4.84,9.96.25,15.46-6.71,8.05-15.82,11.97-25.82,13.98-3.23.65-6.64.92-9.92.7-9.54-.64-13.87-8.71-8.43-16.6,2.82-4.09,7.16-7.36,11.34-10.22,6.66-4.56,15.29-6.54,23.02-6.91Z"/>
  <path d="M812.35,130.93c-1.19,14.33-6.51,26.32-17.99,34.99-6.02,4.55-13.28,2.35-15.58-4.89-1.07-3.37-1.46-7.29-.91-10.77,1.78-11.4,7.1-21.02,16.18-28.32,3.59-2.89,7.68-4.06,12.08-1.92,4.62,2.24,5.8,6.53,6.22,10.91Z"/>
  <path d="M716.27,108.22c1.59-5.43,2.9-10.38,4.58-15.2.32-.92,2.27-2.05,3.19-1.84,3.71.83,7.42,1.88,10.92,3.36,3.65,1.54,4.54,5.89,2.69,10.91-1.67,4.55-5.57,7.42-9.3,6.47-3.84-.97-7.59-2.31-12.08-3.7Z"/>
  <path d="M877.13,996.89c-4.27,2.99-7.9,5.53-12.03,8.41-4.14-10.07-8.03-19.5-11.91-28.94.31-.23.63-.46.94-.68,7.48,6.9,14.96,13.79,23,21.21Z"/>
  <path d="M288.87,213.37c-4.04,3.38-7.42,6.21-11.31,9.47-4.74-9.37-9.17-18.14-13.6-26.92.37-.37.75-.74,1.12-1.11,7.77,6.06,15.55,12.13,23.79,18.56Z"/>
  <path d="M542.9,1089.77c-4.94-.4-9.3-.76-14.6-1.2,3.33-10.25,6.45-19.89,9.58-29.53.43,0,.85,0,1.28,0,1.21,9.97,2.43,19.95,3.74,30.73Z"/>
  <path class="cls-1" d="M748.38,829.65c4.16,6.18,3.98,7.23-1.76,11.12-16.54,11.2-33.16,22.27-49.58,33.64-4.02,2.78-6.75,2.26-9.91-1.1-3.98-4.23-8.34-8.1-12.95-12.54-4.01,2.99-8.37,6.22-12.7,9.49-11.3,8.52-22.68,16.93-33.82,25.65-4.06,3.17-6.91,2.77-10.13-1.04-4.51-5.34-9.45-10.31-14.02-15.6-1.81-2.09-3.42-2.54-6-1.44-10.56,4.5-21.23,8.74-31.79,13.26-1.73.74-3.32,2.21-4.53,3.71-8.18,10.08-16.42,20.13-24.23,30.49-2.8,3.71-5.85,4.82-10.22,4.43-23.03-2.05-44.62-9.07-65.38-18.87-38.53-18.2-70.8-44.65-99.24-76.03-18.05-19.91-34.09-41.35-48.35-64.11-1.98-3.15-4.28-4.55-7.88-4.99-16.52-2.01-33.01-4.34-49.53-6.34-4.78-.58-6.34-2.85-6.44-7.55-1.37-62.75-2.89-125.5-4.37-188.24-.13-5.33-.35-10.65-.38-15.98-.04-6.63,1.83-8.05,8.24-6.23,25.77,7.31,51.52,14.66,77.29,21.99,10.72,3.05,21.4,6.27,32.19,9.03,2.48.64,5.69.46,8-.59,62.36-28.08,124.65-56.32,186.95-84.52,16.07-7.27,32.21-14.38,48.2-21.84,4.13-1.93,6.88-1.53,10.08,1.78,13.19,13.65,26.6,27.08,40,40.53,1.25,1.25,2.8,2.39,4.43,3.04,39.25,15.68,78.51,31.33,117.84,46.8,2.05.8,4.95.65,7.06-.12,39.08-14.25,78.1-28.64,117.13-43.03,8.49-3.13,9.78-2.31,10.9,6.51,6.25,49.21,12.56,98.4,18.84,147.61,2.02,15.85,3.91,31.72,6.05,47.55.64,4.77-.86,6.98-5.76,7.81-27.72,4.72-55.39,9.75-83.12,14.47-4.03.69-6.99,2.35-9.75,5.26-14.12,14.83-27.9,30.02-42.73,44.1-13.86,13.15-28.89,25.07-43.4,37.52-1.63,1.4-3.29,2.77-5.22,4.39ZM594.49,869.48c-9.47-10.51-18.45-20.32-27.25-30.28-8.81-9.97-17.49-20.07-26.15-30.18-1.94-2.26-2.7-5.28.37-6.76,1.58-.76,5.08,0,6.3,1.35,14.44,15.89,28.57,32.05,42.87,48.06,10.75,12.03,21.63,23.94,32.68,36.14,15.04-11.37,29.83-22.54,44.84-33.88-1.12-1.19-1.78-1.91-2.47-2.61-18.39-18.79-36.78-37.59-55.2-56.36-2.35-2.39-3.95-4.98-.97-7.68,2.7-2.44,5.14-.85,7.33,1.4,6.26,6.45,12.62,12.8,18.91,19.22,18.06,18.42,36.16,36.82,54.12,55.35,2.35,2.42,3.98,2.62,6.65.61,4.38-3.3,9.07-6.19,13.62-9.27,9.75-6.6,19.5-13.21,29.51-20-1.06-1.23-1.75-2.13-2.54-2.93-21.93-22.33-43.87-44.64-65.81-66.96-4.32-4.39-8.87-8.59-12.77-13.33-1.13-1.38-.35-4.33-.44-6.56,2.23.16,4.48.19,6.67.54.67.11,1.21,1.09,1.79,1.68,17.6,17.94,35.16,35.93,52.81,53.82,7.33,7.43,14.84,14.68,22.61,22.34,13.18-10.96,26.27-21.83,39.6-32.9-51.31-48.65-102.1-96.81-153.78-145.81,0,3-.07,4.75.01,6.49.63,14.3,1.16,28.61,2.02,42.89.28,4.55-1.17,6.99-5.57,8.53-15.39,5.38-30.67,11.08-45.99,16.66-6.77,2.47-7.14,2.34-11.39-3.78-23.86-34.29-47.71-68.58-71.59-102.86-4.11-5.91-4.15-6.64,1.09-11.71,36.01-34.84,72.14-69.54,107.94-104.58,4.58-4.49,8.35-4.73,13.63-2.27,5.53,2.57,11.34,4.53,17.03,6.76.44-.59.89-1.19,1.33-1.78-7.77-7.28-15.67-14.43-23.24-21.91-2.51-2.47-4.34-2.92-7.66-1.41-77.72,35.29-155.48,70.49-233.34,105.47-2.96,1.33-7.18,1.28-10.4.38-29.66-8.22-59.22-16.77-88.82-25.21-6.01-1.71-12.04-3.33-18.71-5.16,1.57,66.93,3.12,133.09,4.66,198.91.93.47,1.2.71,1.51.75,16.82,2.29,33.64,4.63,50.48,6.75,1.83.23,3.94-.51,5.71-1.28,13.58-5.9,27.18-11.78,40.63-17.97,3.96-1.82,6.65-1.24,9.79,1.65,10.54,9.68,21.47,18.94,31.92,28.71,3.86,3.61,7.22,4.94,12.26,2.55,4.17-1.98,8.87-2.81,13.23-4.45,3.22-1.21,5.6-.6,8.13,1.72,7.72,7.09,16.34,13.35,23.3,21.1,9.28,10.32,20.03,14.25,33.55,12.51,2.24-.29,5.54,1.38,7.09,3.2,10.12,11.9,21.84,21.9,34.72,30.63,14.83,10.05,30.81,17.78,47.7,23.7,5.91,2.07,6.54,4.52,2.67,9.55-1.77,2.31-3.55,4.61-5.32,6.92.18.26.36.51.54.77,5.62-2.29,11.23-4.58,17.75-7.24ZM502.66,607.18c5.11,7.36,9.84,14.19,14.59,21.02,18.35,26.36,36.74,52.7,54.99,79.13,1.84,2.66,3.34,3.29,6.43,2.11,12.6-4.79,25.27-9.41,38-13.82,3.3-1.14,4.2-2.72,4.01-6.15-.93-16.78-1.63-33.58-2.26-50.38-.13-3.42-2.05-7.71,2.5-9.76,4.33-1.96,6.29,2.22,8.61,4.41,47.04,44.49,93.98,89.09,140.95,133.66,5.85,5.56,11.76,11.05,17.79,16.71,15.65-16.21,30.98-31.93,46.09-47.86,3.37-3.55,6.96-5.68,11.85-6.47,17.9-2.9,35.75-6.11,53.62-9.24,9.62-1.68,19.23-3.44,29.34-5.26-8.18-64.19-16.28-127.83-24.43-191.79-1.7.47-2.82.7-3.87,1.09-37.93,13.97-75.88,27.91-113.77,41.99-3.67,1.36-6.83,1.46-10.52-.01-53.17-21.2-106.41-42.24-159.57-63.46-3.62-1.44-5.77-1.08-8.63,1.71-21.77,21.31-43.76,42.38-65.66,63.55-13.27,12.83-26.52,25.69-40.05,38.81ZM320.49,764.29c1.24,2.13,1.95,3.65,2.92,4.96,12.91,17.34,25.07,35.32,38.98,51.83,27.61,32.77,60.08,59.87,98.66,79.13,19.03,9.5,38.91,16.4,59.96,19.87,5.14.85,8.81.38,12.28-4.51,7.23-10.16,15.4-19.64,23.17-29.42,5.04-6.34,10.05-12.71,15.38-19.44-2.04-.87-3.52-1.54-5.03-2.14-25.38-10.02-48.9-23.38-67.39-43.54-8.08-8.8-16.27-11.89-27.25-10.4-3.93.54-6.92-.97-9.84-3.64-10.7-9.76-21.66-19.22-32.4-28.94-2.24-2.03-4.22-2.62-7.11-1.53-4.98,1.87-10.19,3.13-15.15,5.06-3.96,1.54-6.8.7-9.88-2.12-11.18-10.22-22.54-20.25-33.95-30.21-1.27-1.11-3.75-2.3-4.96-1.79-12.71,5.33-25.27,11-38.39,16.8Z"/>
  <path class="cls-1" d="M466.71,369.49v28.18h-10.3v-42.53c6.1,0,12.04-.16,17.95.15,1.06.05,2.53,1.86,2.93,3.13,1.74,5.53,3.15,11.16,5.57,16.82,1.44-5.2,3.04-10.37,4.26-15.62.75-3.26,2.09-4.78,5.73-4.53,4.93.35,9.91.09,15.22.09v42.48h-12.78v-27.64c-.4-.05-.8-.1-1.2-.15-2.76,9.29-5.51,18.58-8.3,27.98h-9.89c-2.73-9.5-5.43-18.89-8.12-28.28-.35-.03-.71-.05-1.06-.08Z"/>
  <path class="cls-1" d="M551.58,369.45c-2.37,8.11-5.01,16.16-6.99,24.37-.95,3.92-3.05,4.26-6.38,4.35-3.54.09-5.36-.83-6.27-4.52-2.01-8.15-4.52-16.18-7.93-24.09v28.25h-10.04v-42.3h19.89c1.78,6.31,3.61,12.82,5.45,19.34.34.07.68.14,1.03.22,1.37-4.94,2.99-9.82,4.03-14.83.82-3.92,2.47-5.59,6.71-5.18,4.6.45,9.27.1,14.33.1v42.65h-12.43v-28.26l-1.39-.09Z"/>
  <path class="cls-1" d="M571.97,316.05v24.44h-9.75v-42.62c4.23,0,8.51-.23,12.75.14,1.27.11,2.67,1.7,3.52,2.95,4.17,6.11,8.17,12.34,13.22,18.23v-20.96h10.4v42.49c-3.81,0-7.45.33-10.97-.16-1.41-.2-2.87-1.98-3.81-3.38-4.76-7.15-9.36-14.41-14.02-21.64-.45.17-.91.34-1.36.51Z"/>
  <path class="cls-1" d="M429.33,399.28c-13.87-.17-22.57-9.17-22.4-23.16.16-13.43,9.56-22.23,23.61-22.11,13.53.11,22.44,9.52,22.22,23.45-.2,13.03-9.82,21.99-23.43,21.82ZM420.73,376.14c.23,2.28.23,4.3.68,6.22,1.03,4.38,3.84,7.01,8.43,7.01,4.6,0,7.68-2.5,8.18-7.08.43-3.89.46-7.93-.1-11.79-.63-4.29-3.73-6.57-8.12-6.55-4.37.02-7.17,2.35-8.24,6.56-.48,1.91-.6,3.92-.84,5.62Z"/>
  <path class="cls-1" d="M643.53,376.76v-21.17h9.97v42.48c-3.56,0-7.06.31-10.45-.15-1.45-.2-3.05-1.75-3.96-3.1-4.09-6.07-7.95-12.3-11.92-18.45-.76-1.18-1.68-2.26-3.32-4.45v25.82h-10.02v-42.56c4.27,0,8.54-.24,12.76.14,1.26.11,2.64,1.76,3.5,3.03,4.19,6.17,8.23,12.45,12.32,18.68.38-.09.76-.18,1.13-.27Z"/>
  <path class="cls-1" d="M451.08,314.45v25.91h-10.06v-42.48c4.2,0,8.63-.24,13,.15,1.24.11,2.55,1.87,3.42,3.16,4.17,6.14,8.2,12.38,13.19,18.34v-21.38h10.09v42.58c-3.69,0-7.17.26-10.59-.13-1.3-.15-2.76-1.57-3.59-2.79-4.18-6.21-8.16-12.55-12.23-18.83-.76-1.17-1.63-2.27-3.25-4.52Z"/>
  <path class="cls-1" d="M630.53,318.28h18.52v22.78c-4.09-1.56-8.85,2.23-11.86-2.73-2.95,1.07-6.21,2.99-9.66,3.38-10.55,1.21-18-5.04-20.23-16.29-3.62-18.25,7.89-30.84,26.08-28.55,8.96,1.13,14.96,7.38,14.98,16.03-3.14,0-6.3.21-9.41-.11-1.15-.12-2.46-1.3-3.2-2.35-3.71-5.26-11.04-4.95-13.7.91-2.43,5.37-2.41,11.06-.14,16.52,1.52,3.66,4.81,5.06,8.58,4.69,3.22-.32,6.06-1.55,6.52-5.86-2.24-.25-4.16-.47-6.49-.73v-7.69Z"/>
  <path class="cls-1" d="M810.72,368.65h-11.9c-1.33-3.61-3.64-6.52-7.97-5.81-1.78.29-3.31,2.07-4.96,3.17,1.22,1.33,2.21,3.31,3.72,3.87,4.03,1.51,8.42,2.06,12.43,3.62,8.91,3.48,10.8,14.67,3.8,21.23-7.32,6.86-24.21,6.02-30.56-1.79-1.86-2.29-2.8-5.34-4.49-8.7,5.97.09,11.18-2.25,14.04,4.16.54,1.21,3.23,2.25,4.75,2.05,2.35-.32,4.54-1.78,6.79-2.75-1.63-1.51-3.01-3.59-4.93-4.41-3.48-1.5-7.42-1.93-10.93-3.39-9.41-3.92-11.03-14.62-3.42-21.42,6.55-5.85,20.48-6.36,26.9-.38,2.66,2.48,4.08,6.29,6.72,10.55Z"/>
  <path class="cls-1" d="M403.53,381.27c.36,10.42-6.75,17.45-18.17,17.95-14.01.62-23.03-7.2-23.63-20.48-.64-14.23,7.03-23.9,19.58-24.69,12.8-.81,21.19,5.63,21.98,17.38-4.91-.27-9.87,2.23-13.41-4.41-2.6-4.87-11.53-3.52-12.84,1.91-1.19,4.93-1.25,10.6-.06,15.52,1.36,5.62,9.84,6.25,13.37,1.54,4.42-5.89,4.9-6.06,13.19-4.73Z"/>
  <path class="cls-1" d="M598.51,355.37h9.61c.21.93.61,1.85.61,2.76.04,8.49.14,16.99-.04,25.48-.2,9.32-5.61,14.82-14.87,15.48-1.49.11-3,.09-4.49.08-13.39-.09-18.76-5.47-18.8-18.87-.02-8.14,0-16.28,0-24.78h13.29c0,8.5-.05,16.93.02,25.36.03,4.05.74,7.77,5.8,8.46,5.5.75,8.32-1.37,8.49-6.96.22-7.16.07-14.32.11-21.48.01-1.78.17-3.57.27-5.53Z"/>
  <path class="cls-1" d="M768.48,355.41v9h-20.37v6.7c3.88.21,7.76.43,12,.66v8.91h-11.81v7.92h20.7v9.19h-33.83v-42.38h33.31Z"/>
  <path class="cls-1" d="M398.04,298.09h12.97c0,8.7-.05,17.14.02,25.58.03,4.1.93,7.73,5.97,8.28,5.71.63,8.24-1.48,8.4-7.68.21-8.61.05-17.23.05-26.14h9.97c0,10.65.44,21.25-.17,31.79-.35,6-4.61,10.26-10.64,10.96-5.5.64-11.28.56-16.71-.44-5.71-1.05-9.46-5.49-9.73-11.3-.47-10.24-.13-20.52-.13-31.05Z"/>
  <path class="cls-1" d="M708.77,340.75c-2.77,0-4.61-.19-6.4.04-5.44.69-9.32-.42-10.11-6.86-.14-1.17-2.51-2.58-4.07-2.93-2.22-.5-4.7-.47-6.94-.01-1.42.29-3.26,1.48-3.8,2.74-3.29,7.69-3.18,7.73-12.62,6.63.18-1.1.2-2.24.56-3.26,4.07-11.61,8.33-23.16,12.22-34.83,1.13-3.38,2.67-4.62,6.31-4.55,10.16.21,10.16.04,13.49,9.78,3.69,10.82,7.39,21.65,11.35,33.25ZM685.19,310.04c-1.72,5.07-2.97,8.73-4.34,12.79h8.36c-1.28-4.07-2.42-7.73-4.01-12.79Z"/>
  <path class="cls-1" d="M711.88,364.94h-10.91v32.85h-13.32v-33.01h-11.04v-9.24h35.27v9.41Z"/>
  <path class="cls-1" d="M514.71,340.44v-32.79c-3.73-.21-7.14-.41-10.89-.62v-8.85h35.18v8.89c-3.54.17-6.96.33-10.89.52v32.86h-13.4Z"/>
  <path class="cls-1" d="M724.51,331.51h16.92v9.04h-29.67v-42.34h12.74v33.3Z"/>
  <path class="cls-1" d="M746.08,298.03h12.63v33.19h16.74v9.36h-29.37v-42.56Z"/>
  <path class="cls-1" d="M672.7,397.83h-12.53v-42.35h12.53v42.35Z"/>
  <path class="cls-1" d="M499.84,340.48h-12.48v-42.3h12.48v42.3Z"/>
  <path class="cls-1" d="M544.18,298.05h12.55v42.29h-12.55v-42.29Z"/>
  <path class="cls-1" d="M716.99,355.42h12.49v42.34h-12.49v-42.34Z"/>
  <path d="M594.49,869.48c-6.52,2.66-12.14,4.95-17.75,7.24-.18-.26-.36-.51-.54-.77,1.77-2.31,3.55-4.61,5.32-6.92,3.87-5.03,3.23-7.48-2.67-9.55-16.89-5.91-32.87-13.64-47.7-23.7-12.88-8.73-24.6-18.73-34.72-30.63-1.56-1.83-4.86-3.49-7.09-3.2-13.52,1.73-24.27-2.19-33.55-12.51-6.97-7.75-15.58-14-23.3-21.1-2.52-2.32-4.91-2.93-8.13-1.72-4.36,1.63-9.06,2.47-13.23,4.45-5.04,2.39-8.41,1.06-12.26-2.55-10.45-9.77-21.38-19.03-31.92-28.71-3.14-2.88-5.83-3.47-9.79-1.65-13.45,6.19-27.04,12.07-40.63,17.97-1.77.77-3.88,1.51-5.71,1.28-16.84-2.12-33.66-4.46-50.48-6.75-.3-.04-.57-.28-1.51-.75-1.54-65.82-3.09-131.98-4.66-198.91,6.66,1.83,12.7,3.45,18.71,5.16,29.6,8.43,59.16,16.99,88.82,25.21,3.22.89,7.44.95,10.4-.38,77.86-34.99,155.62-70.18,233.34-105.47,3.32-1.51,5.15-1.07,7.66,1.41,7.58,7.48,15.47,14.63,23.24,21.91-.44.59-.89,1.19-1.33,1.78-5.69-2.23-11.5-4.19-17.03-6.76-5.28-2.46-9.05-2.21-13.63,2.27-35.81,35.04-71.94,69.74-107.94,104.58-5.24,5.07-5.2,5.8-1.09,11.71,23.87,34.28,47.73,68.57,71.59,102.86,4.25,6.12,4.62,6.25,11.39,3.78,15.32-5.58,30.6-11.29,45.99-16.66,4.4-1.54,5.85-3.98,5.57-8.53-.86-14.29-1.39-28.59-2.02-42.89-.08-1.74-.01-3.48-.01-6.49,51.68,49,102.47,97.15,153.78,145.81-13.32,11.07-26.41,21.95-39.6,32.9-7.76-7.66-15.28-14.91-22.61-22.34-17.65-17.9-35.21-35.88-52.81-53.82-.58-.59-1.12-1.57-1.79-1.68-2.2-.35-4.44-.39-6.67-.54.09,2.23-.69,5.18.44,6.56,3.89,4.74,8.45,8.94,12.77,13.33,21.94,22.32,43.88,44.64,65.81,66.96.79.8,1.48,1.7,2.54,2.93-10.01,6.79-19.76,13.4-29.51,20-4.55,3.08-9.23,5.97-13.62,9.27-2.67,2.01-4.3,1.81-6.65-.61-17.96-18.53-36.05-36.92-54.12-55.35-6.29-6.42-12.65-12.78-18.91-19.22-2.19-2.25-4.63-3.84-7.33-1.4-2.99,2.7-1.39,5.28.97,7.68,18.42,18.77,36.81,37.57,55.2,56.36.68.7,1.34,1.42,2.47,2.61-15.01,11.34-29.8,22.52-44.84,33.88-11.05-12.21-21.93-24.12-32.68-36.14-14.3-16.01-28.43-32.18-42.87-48.06-1.23-1.35-4.73-2.11-6.3-1.35-3.07,1.48-2.3,4.5-.37,6.76,8.66,10.11,17.34,20.2,26.15,30.18,8.8,9.96,17.77,19.77,27.25,30.28Z"/>
  <path d="M502.66,607.18c13.54-13.12,26.78-25.98,40.05-38.81,21.9-21.17,43.89-42.25,65.66-63.55,2.86-2.8,5.01-3.16,8.63-1.71,53.16,21.22,106.4,42.26,159.57,63.46,3.69,1.47,6.86,1.37,10.52.01,37.89-14.08,75.84-28.02,113.77-41.99,1.05-.39,2.17-.61,3.87-1.09,8.15,63.96,16.25,127.6,24.43,191.79-10.11,1.81-19.72,3.57-29.34,5.26-17.86,3.13-35.72,6.34-53.62,9.24-4.88.79-8.48,2.92-11.85,6.47-15.11,15.93-30.44,31.65-46.09,47.86-6.03-5.66-11.93-11.16-17.79-16.71-46.97-44.57-93.9-89.17-140.95-133.66-2.31-2.19-4.27-6.37-8.61-4.41-4.55,2.05-2.63,6.34-2.5,9.76.63,16.8,1.32,33.59,2.26,50.38.19,3.43-.71,5.01-4.01,6.15-12.74,4.41-25.4,9.02-38,13.82-3.09,1.18-4.59.55-6.43-2.11-18.24-26.44-36.64-52.77-54.99-79.13-4.75-6.82-9.48-13.66-14.59-21.02ZM897.65,535.95c-2.88,1.01-5.2,1.81-7.51,2.64-34.57,12.5-69.15,24.97-103.69,37.56-3.46,1.26-6.42,1.39-9.99,0-52.05-20.38-104.17-40.55-156.22-60.92-3.49-1.36-5.5-.86-8.15,1.75-22.52,22.19-45.31,44.12-67.82,66.32-8.74,8.62-16.97,17.75-25.68,26.91,19.94,29.99,40.38,60.73,61.12,91.93,9.94-4.53,19.79-8.9,29.47-13.61,1.09-.53,1.76-2.98,1.74-4.53-.11-9.32-1.16-18.67-.62-27.94.81-13.91-3.04-25.03-14.97-33.1-4.29-2.9-3.94-7.03,0-10.43,3.91-3.37,7.93-6.6,11.97-9.81,4.85-3.86,7.31-3.59,11.37,1.19,10.13,11.93,20.14,23.96,30.42,35.75,1.97,2.25,4.74,4.21,7.53,5.27,32.17,12.27,64.5,24.14,96.59,36.6,9.51,3.69,18.45,5.03,27.91.51,3.13-1.49,6.63-2.17,9.9-3.39,5.08-1.89,10.22-4.11,14.79.79,4.83,5.17,1.73,10.16-.72,15.14-4.41,9.01-8.6,10.91-17.97,7.76-34.54-11.59-69.06-23.26-103.62-34.77-1.79-.6-3.96-.03-5.96,0,.88,1.75,1.35,3.96,2.7,5.2,33.93,30.97,67.95,61.84,101.96,92.72,4.93,4.48,7.48,4.28,12.16-.71,12.3-13.11,24.54-26.27,36.98-39.24,1.7-1.78,4.27-3.26,6.67-3.76,25.41-5.28,50.85-10.44,76.35-15.32,4.45-.85,5.49-2.25,4.88-6.78-6.08-45.19-11.88-90.42-17.78-135.64-1.2-9.2-2.49-18.39-3.8-28.08Z"/>
  <path d="M320.49,764.29c13.12-5.8,25.68-11.47,38.39-16.8,1.22-.51,3.69.68,4.96,1.79,11.41,9.96,22.77,19.99,33.95,30.21,3.08,2.82,5.92,3.66,9.88,2.12,4.95-1.93,10.17-3.2,15.15-5.06,2.89-1.09,4.87-.5,7.11,1.53,10.74,9.72,21.7,19.18,32.4,28.94,2.92,2.67,5.91,4.17,9.84,3.64,10.98-1.5,19.18,1.6,27.25,10.4,18.49,20.16,42.01,33.52,67.39,43.54,1.51.6,2.99,1.27,5.03,2.14-5.32,6.73-10.34,13.1-15.38,19.44-7.77,9.77-15.94,19.26-23.17,29.42-3.47,4.88-7.15,5.35-12.28,4.51-21.05-3.48-40.93-10.37-59.96-19.87-38.58-19.27-71.05-46.36-98.66-79.13-13.91-16.51-26.06-34.49-38.98-51.83-.98-1.31-1.68-2.83-2.92-4.96ZM466.08,893.76c2.19-1.39,4.66-2.44,6.45-4.19,11.92-11.59,23.72-23.31,35.5-35.03,5.11-5.08,4.96-9.05-.63-13.82-7.71-6.59-15.56-13-23.31-19.55-3.93-3.32-7.65-3.13-11.68-.04-13.98,10.72-28.09,21.28-42.09,31.98-5.84,4.46-5.92,9.42-.25,13.94,10.02,7.97,20.09,15.86,30.21,23.69,1.51,1.17,3.43,1.81,5.8,3.02ZM521.16,913.57c2.45-1.53,4.9-2.36,6.32-4.05,9.39-11.21,18.6-22.56,27.76-33.95,3.06-3.81,2.43-7.09-1.8-9.49-7.66-4.35-15.45-8.45-23.11-12.77-3.41-1.92-6.16-1.52-8.92,1.28-4.55,4.61-9.29,9.03-13.95,13.53-8.71,8.44-17.47,16.82-26.1,25.34-4.28,4.23-3.76,8.38,1.54,9.91,12.57,3.64,25.28,6.77,38.26,10.2ZM449.84,816.41c-1.65-2.26-2.75-4.52-4.5-6.02-7.43-6.39-15.09-12.52-22.6-18.82-3.26-2.74-6.52-2.9-10.04-.65-10.49,6.73-21.04,13.36-31.47,20.19-5.23,3.42-5.67,7.59-1.34,11.95,8.44,8.48,16.99,16.85,25.55,25.2,3.41,3.33,7.13,3.35,10.68.24,10.01-8.75,19.99-17.53,29.87-26.43,1.49-1.34,2.34-3.4,3.85-5.66ZM362.01,760.76c-1.5.14-2.05.07-2.49.26-4.91,2.03-9.86,4-14.7,6.2-5.73,2.6-6.91,7.65-2.92,12.59,5.54,6.85,11.23,13.59,16.89,20.34,3.01,3.6,6.61,4.25,10.63,1.77,4.1-2.53,8.18-5.11,12.22-7.74,5.67-3.7,6.25-8.17,1.56-13.24-5.3-5.74-10.68-11.42-16.21-16.94-1.55-1.55-3.75-2.45-4.98-3.22Z"/>
  <path d="M420.73,376.14c.24-1.7.36-3.71.84-5.62,1.06-4.21,3.87-6.54,8.24-6.56,4.39-.02,7.49,2.25,8.12,6.55.56,3.86.53,7.9.1,11.79-.5,4.57-3.58,7.07-8.18,7.08-4.59,0-7.4-2.63-8.43-7.01-.45-1.92-.45-3.94-.68-6.22Z"/>
  <path d="M685.19,310.04c1.59,5.06,2.74,8.72,4.01,12.79h-8.36c1.38-4.06,2.62-7.72,4.34-12.79Z"/>
  <path class="cls-1" d="M897.65,535.95c1.31,9.69,2.6,18.88,3.8,28.08,5.9,45.22,11.71,90.45,17.78,135.64.61,4.53-.43,5.93-4.88,6.78-25.49,4.88-50.93,10.05-76.35,15.32-2.4.5-4.97,1.98-6.67,3.76-12.44,12.97-24.68,26.14-36.98,39.24-4.68,4.99-7.22,5.18-12.16.71-34.02-30.87-68.03-61.75-101.96-92.72-1.35-1.24-1.82-3.44-2.7-5.2,1.99-.02,4.17-.59,5.96,0,34.57,11.51,69.08,23.18,103.62,34.77,9.38,3.15,13.56,1.25,17.97-7.76,2.44-4.99,5.54-9.97.72-15.14-4.57-4.89-9.71-2.68-14.79-.79-3.27,1.22-6.78,1.89-9.9,3.39-9.46,4.52-18.39,3.19-27.91-.51-32.09-12.47-64.42-24.33-96.59-36.6-2.79-1.07-5.57-3.02-7.53-5.27-10.28-11.79-20.29-23.82-30.42-35.75-4.06-4.78-6.52-5.04-11.37-1.19-4.04,3.21-8.07,6.44-11.97,9.81-3.94,3.4-4.3,7.53,0,10.43,11.93,8.07,15.78,19.19,14.97,33.1-.54,9.27.5,18.62.62,27.94.02,1.55-.66,4-1.74,4.53-9.68,4.71-19.53,9.07-29.47,13.61-20.74-31.2-41.18-61.94-61.12-91.93,8.71-9.16,16.95-18.29,25.68-26.91,22.51-22.21,45.3-44.13,67.82-66.32,2.65-2.61,4.67-3.11,8.15-1.75,52.05,20.37,104.18,40.54,156.22,60.92,3.57,1.4,6.53,1.27,9.99,0,34.54-12.59,69.12-25.06,103.69-37.56,2.31-.84,4.63-1.63,7.51-2.64Z"/>
  <path class="cls-1" d="M466.08,893.76c-2.37-1.21-4.29-1.85-5.8-3.02-10.12-7.83-20.19-15.72-30.21-23.69-5.67-4.51-5.59-9.47.25-13.94,14-10.7,28.11-21.26,42.09-31.98,4.03-3.09,7.75-3.28,11.68.04,7.75,6.54,15.6,12.96,23.31,19.55,5.58,4.77,5.73,8.74.63,13.82-11.79,11.72-23.58,23.44-35.5,35.03-1.79,1.74-4.26,2.79-6.45,4.19Z"/>
  <path class="cls-1" d="M521.16,913.57c-12.99-3.43-25.7-6.56-38.26-10.2-5.3-1.53-5.82-5.69-1.54-9.91,8.63-8.52,17.39-16.91,26.1-25.34,4.65-4.51,9.4-8.92,13.95-13.53,2.76-2.8,5.51-3.2,8.92-1.28,7.67,4.33,15.46,8.43,23.11,12.77,4.22,2.4,4.86,5.68,1.8,9.49-9.16,11.39-18.38,22.74-27.76,33.95-1.42,1.69-3.87,2.53-6.32,4.05Z"/>
  <path class="cls-1" d="M449.84,816.41c-1.5,2.26-2.36,4.31-3.85,5.66-9.87,8.9-19.86,17.67-29.87,26.43-3.56,3.11-7.27,3.09-10.68-.24-8.56-8.35-17.11-16.72-25.55-25.2-4.34-4.36-3.89-8.52,1.34-11.95,10.43-6.83,20.98-13.46,31.47-20.19,3.52-2.26,6.78-2.09,10.04.65,7.51,6.31,15.17,12.43,22.6,18.82,1.75,1.5,2.85,3.76,4.5,6.02Z"/>
  <path class="cls-1" d="M362.01,760.76c1.24.78,3.43,1.68,4.98,3.22,5.53,5.52,10.91,11.2,16.21,16.94,4.69,5.08,4.11,9.55-1.56,13.24-4.04,2.63-8.12,5.21-12.22,7.74-4.02,2.48-7.62,1.83-10.63-1.77-5.66-6.75-11.34-13.49-16.89-20.34-3.99-4.93-2.81-9.98,2.92-12.59,4.84-2.2,9.78-4.16,14.7-6.2.44-.18.98-.11,2.49-.26Z"/>
</svg>